/* XPM */
static char *_6631a1167a842429c78a3336ceb4366I1z2lwbCr2uMfN9Y[] = {
/* columns rows colors chars-per-pixel */
"64 64 233 2 ",
"   c #1F7FD7",
".  c #1F7BDE",
"X  c #207BDD",
"o  c #1E6CEE",
"O  c #1F7AE4",
"+  c #1F76E8",
"@  c #1D6BF1",
"#  c #1F73F2",
"$  c #1F7BF4",
"%  c #226EEF",
"&  c #207CE5",
"*  c #2773ED",
"=  c #227CED",
"-  c #2C7CEC",
";  c #317CEA",
":  c #2175F2",
">  c #217BF3",
",  c #287EF1",
"<  c #717FF9",
"1  c #1F81D8",
"2  c #228ECD",
"3  c #2295CD",
"4  c #249BCE",
"5  c #2084D6",
"6  c #218CD3",
"7  c #2084DD",
"8  c #228CDA",
"9  c #2394D4",
"0  c #249BD3",
"q  c #2393DB",
"w  c #259CDC",
"e  c #26A7C8",
"r  c #25A3CC",
"t  c #29ABCD",
"y  c #30BBCA",
"u  c #2AABD3",
"i  c #27A2D8",
"p  c #2DACDB",
"a  c #2EB4D4",
"s  c #2FB2D9",
"d  c #31B7D8",
"f  c #2183E4",
"g  c #2183ED",
"h  c #228BEB",
"j  c #3E89E6",
"k  c #3484EB",
"l  c #3A88E9",
"z  c #3A8AE9",
"x  c #2393E4",
"c  c #279DE3",
"v  c #2392EC",
"b  c #289CEB",
"n  c #3D91E9",
"m  c #2283F5",
"M  c #2A84F3",
"N  c #238AF7",
"B  c #2B8BF4",
"V  c #248EF8",
"C  c #308FF5",
"Z  c #2795F7",
"A  c #2C93F6",
"S  c #2B9BF7",
"D  c #2692F8",
"F  c #2B95F8",
"G  c #2B9CF8",
"H  c #3293F5",
"J  c #339BF7",
"K  c #339DF8",
"L  c #389AF8",
"P  c #3D9DF8",
"I  c #2AA3E4",
"U  c #2EABE6",
"Y  c #2DA5ED",
"T  c #2FA9ED",
"R  c #32B3E7",
"E  c #2EA2F6",
"W  c #2EA4F8",
"Q  c #2FAAF8",
"!  c #34A3F7",
"~  c #3CA6F7",
"^  c #33ADF7",
"/  c #3AABF7",
"(  c #33A4F8",
")  c #3AA4F8",
"_  c #32A9F8",
"`  c #3AADF8",
"'  c #35B0F7",
"]  c #3CBDF7",
"[  c #37B3F9",
"{  c #38B4F8",
"}  c #3AB6F9",
"|  c #3ABCF8",
" . c #579DDE",
".. c #438CE4",
"X. c #438CE5",
"o. c #4493E6",
"O. c #4B94E2",
"+. c #4B99E4",
"@. c #4397E8",
"#. c #519EE2",
"$. c #4A8CF8",
"%. c #5B89F8",
"&. c #4799F8",
"*. c #5998F8",
"=. c #6889F9",
"-. c #6C8BF9",
";. c #7589F9",
":. c #6494F9",
">. c #6C93F9",
",. c #6499F9",
"<. c #6C9CF9",
"1. c #7698FA",
"2. c #739CFA",
"3. c #52A2E2",
"4. c #43A3F8",
"5. c #46A9F8",
"6. c #4AADF9",
"7. c #5AA3F9",
"8. c #53ABF9",
"9. c #5BACF9",
"0. c #42B4F9",
"q. c #4CB3F8",
"w. c #44BCF9",
"e. c #4CBAF9",
"r. c #53B3F9",
"t. c #5BB4F9",
"y. c #55BCF9",
"u. c #59BDF9",
"i. c #65A5F9",
"p. c #6BA3F9",
"a. c #63ABF9",
"s. c #6CABF9",
"d. c #75A3F9",
"f. c #7BA4F9",
"g. c #74ABF9",
"h. c #7BA9F9",
"j. c #67B4F9",
"k. c #6CB2F9",
"l. c #64BBF9",
"z. c #77B7FA",
"x. c #3DC3F9",
"c. c #3FC8F8",
"v. c #43DFCE",
"b. c #46E5CD",
"n. c #48E9CC",
"m. c #49EACC",
"M. c #46E3D4",
"N. c #49E6D5",
"B. c #4BEBD4",
"V. c #47E2DB",
"C. c #49E5DB",
"Z. c #4EEBDC",
"A. c #50EEDD",
"S. c #4EF1D7",
"D. c #52F3DD",
"F. c #7EF6DF",
"G. c #53CDEE",
"H. c #49DEED",
"J. c #5BD3EC",
"K. c #45CBF6",
"L. c #44C3F8",
"P. c #4BC4F8",
"I. c #42CCF8",
"U. c #4BCBF8",
"Y. c #55C4F9",
"T. c #57C9F9",
"R. c #49D4F7",
"E. c #4CDAF7",
"W. c #46D4F9",
"Q. c #49D4F8",
"!. c #4ADCFA",
"~. c #55D7F6",
"^. c #53DBFA",
"/. c #67D8E6",
"(. c #6ADAE5",
"). c #68C8FA",
"_. c #75C5F8",
"`. c #65D3F9",
"'. c #6DD1F8",
"]. c #4BE5E4",
"[. c #4EEAE2",
"{. c #4CE4EC",
"}. c #4FE9EA",
"|. c #5EE3EF",
" X c #52EDEB",
".X c #58EEE9",
"XX c #55F2EC",
"oX c #58F4E8",
"OX c #4EE6F5",
"+X c #4EE5F9",
"@X c #4FE8F8",
"#X c #53E5F6",
"$X c #59E3F6",
"%X c #54ECF6",
"&X c #59ECF3",
"*X c #50E6F8",
"=X c #53EBF8",
"-X c #56F1F5",
";X c #59F5F3",
":X c #59F4F4",
">X c #59F6F4",
",X c #59F8F2",
"<X c #59F8F3",
"1X c #5AF9F3",
"2X c #5DF9F1",
"3X c #6CE2E6",
"4X c #63E4EC",
"5X c #64ECED",
"6X c #6BE8E8",
"7X c #6AECEA",
"8X c #75E7E2",
"9X c #73ECE5",
"0X c #7BEEE1",
"qX c #6FF3E7",
"wX c #63F4EE",
"eX c #6CF2E9",
"rX c #65F8EC",
"tX c #6BF9E9",
"yX c #74F3E5",
"uX c #76F6E4",
"iX c #7BF3E1",
"pX c #72F9E6",
"aX c #79F9E3",
"sX c #61EEF0",
"dX c #8589FA",
"fX c #8797FA",
"gX c #83A3F9",
"hX c #85ACFA",
"jX c #92A9FA",
"kX c #83B4FA",
"lX c #87B7F9",
"zX c #80EEDF",
"xX c #81F3DF",
/* pixels */
"1X1X1X1X>X<X<X1X1X1X1X1X1X1X1X1X<X<X1X1X1X<X&X&X&X&X&X&X&X&X>X1X1X1X,X1X1X1X1X1X1X1X1XD.n.n.D.1X1X1X1X1X1X,X,X1X1XaX2XtXaX2XrXpX",
"1X1X1X>X1X1X<X<X<X<X1X1X1X>X,X1X<X>X<X<X<X<X;X#X;X&X%X&X;X>X1X1X;X1X,X>X,X,X1X,X>X>X>XS.oXoXS.,X,X,X,X,X,X;X,X1X2XpX1X>XtXpXtXtX",
";X1X>X>X;X1X1X;X<X>X<XrXaXpX,X,X1X>X:X1X<X&X&X&X#X&X&X&X&X,X>X>X>X>X>X>X,X>X>X,X>X>X1XZ.S.,XS.XX>X,X,X,X>X1X>X>X1XpXpXrXrXqXaX2X",
">X>X>X>X;X1X;X;X<X>X1XF.uXF.uX1X1X;X;X1X>X=X;X;X&X;X#X;X&X>X>X>X,X<X>X>X>X>X>X>X1X1X>XoXm.2XS.XX>X>X,X,X>X>X>X;X1XwXpXpXuXwX;X1X",
">X;X>X;X;X;X;X;X>X%XpXyX;X;XF.1X>X>X;X;X&X&X>X&X&X1X&X>X%X&X>X>X:X:X;X-X>X;X;X;X1XXX>X>XA.A.Z.XX>XXX[.XX1X>X;X;X-X;X&X;XrXqXpXwX",
";X;X-X1XwX:X%X:X;X;XiX;X;X-XyXwX%X;X;X&X-X#X=X#X&X;X%X&X%X&X-X-X:X;X-X>X>X;X-X%X[.n.n.>XXXB.B.XXXXn.n.n.XX>X-X;X-X;X;X2XqXuXF.pX",
"%X-XwXF.xXxXwX:X-X;XF.-X-X>XyXwX-X-X-X;X-X%X#X;X-X-X%X#X%X-X-X-X-X-X-X>X-X-X-X-XB.[.Z.B. XB.Z.B.B.Z.;X[.Z.-X;X-X-X;XuXuXqXwXyXqX",
"-X-XyXeX:XqXiXsX%X&XyX>X-X&XaX&X-X-X-X-X-X-X=X>X-X-X-X%X&X-X-X-X-X-X-X-X-X-X-X-XZ. X-XB.n.Z.XXB.C.-X-XXXZ.-X-X-X-XyX7X;XwXeX;XeX",
"-X&XiX>X%X%XeXiX%X>XiX=X>XyXeX=X-X-X=X-X-X-X>X=X%X-X-X=X-X;X-X-X-X-X-X-X-X-X%X-X[.n.[.[.[.B.Z.%X%X;X=X[.C.;X=X-X-XyX&XoXiXyX2X9X",
"=X&XyXXX%X-X%XyXyXiXyX%XeXiX&X=X-X%X-X=X=X=X-X=X%X-X%X;X=X%X=X=X=X=X-X=X-X%X%X-X=XZ.n.n.[.n.b. Xb.b.B.n. X=X-X-X%X7XpXyX&XsX2X7X",
"=X-X7XF.tX7X5X&X9XiX&X&XaX&X=X;X=X-X%X%X-X%X%X-X%X-X=X=X%X%X=X-X%X-X=X%X-X%X%X%X-X%X=X[.].N.N.Z.B.[.Z. X=X=X-X=X=X;X5X&X%XeX.X&X",
"=XOX&X5XyXiXxXwX=X=X=XeX5X&X5XeXsX%X%X%X=X=X=X%X=X=X-X=X=X=X=X=X=X=X=X=X=X=X=X%X=X*X[.M. X}.].[.M.}.=X=X%X%X%X=X%X=X=X=X&X7X%X=X",
"=X=X=X@X=X=X&X9X&XsX&X5X0X0XF.iX0X7X=X=X=X=X=X=X=X=X=X=X=X=X@X$X_.'.$X=X=X=X=X=X#Xn.b.].#Xb.b.].].b.}.=X=X@X=X=X=X=X=X=XsX5X=X=X",
"@X=X%X=X*X#X*XiX7XzXyX%X6X5X*X*X&X9X&X*XOX=XOX#X=X=X@X=X=X*X$XlXlXjX_.=X=X=X*X*X].C.OX*X[.C.}.M.*X[.N.@X=X#X*X*X=XOX#X*X5X5X=X5X",
"@X@XOXOX#X%X5X9X7X9X9X#XOXOX*X*X@X7X5X@X@X=X#X@X+X@X@X*X*X@X_._.=X$XlX~.*X*X*X*XC.{.@X@XC.{.OXV.{.OXV.@X@X@X*X*X@X@X*X@X&X9X5X9X",
"@X@X@X5X0XzXiX4X&XxX9X5XyX5X#X*X+X5X6X+X@X@X+X@X+X@X#X@X@X*XlX`.@X@X_._.@X@X@X+XC.].@X{.M.@X@XV.{.OXV.OX#X+X@X+X@X@X*X+X*XsX6X&X",
"+X@X&X0X5X$X%X$X#X#X&X0X7X0X6X#X@X5X5X*X*X*X*X*X+X`.lX'.+X*XlX*X+X+X`._.+X+X+X+X{.v.M.b.{.+X+X].].{.V.@X*X+X*X+X+X+X*X*X+X+X+X*X",
"!.+X6X5XE.*X5XzX3XOX4X6X+X#X9X9X7X8X#X+X+X!.+X+X^.kXkXhX~.^.z.^.+X+X)._.+X+X+X+XOXH.H.OX+X!.+XOXv.v.H.+X+X+X+X+X+X+X+X*X+X+X+X+X",
"!.+X6X$X!.#X8X|.9X#X|.4X!.!.#X6X8X4X+X!.!.!.!.+X^.kX^.).hX).hX^.!.!.kX`.!.!.!.+X!.!.!.!.!.+X+X!.H.H.E.OX!.!.+X!.!.!.+X!.+X!.!.!.",
"!.!.~.8X4X8X4X!.6X~.$X3X!.!.!.!.!.!.!.!.!.!.!.!.E.z.).!.z.jXz.+X^.z.h.!.!.!.!.!.!.!.!.!.!.!.!.!.!.!.E.E.!.!.!.!.!.!.!.!.!.!.!.!.",
"!.!.R.4X8X4XR.E.3XE.E.3XE.!.!.!.!.!.W.!.!.!.!.W.!.T.hXQ.Q.Q.W.!.z.hXQ.!.!.W.!.!.!.!.!.W.!.!.W.!.W.!.!.W.!.W.!.!.W.!.W.!.!.W.!.!.",
"W.W.W.W.R.R.R.~.3XR.E.3XE.W.W.W.W.W.W.W.W.W.W.Q.R.W.k.z.W.Q.W.T.h.T.W.W.!.W.W.W.R.W.W.W.W.W.W.W.W.W.!.W.!.W.Q.U.W.!.T.z.T.W.W.W.",
"W.W.W.W.W.W.W./.J.W.W.(.G.W.W.W.W.W.W.W.W.W.T.gXh.Q.Y.h.T.hXl.Y.h.P.u.z.T.W.I.W.W.W.W.W.W.W.W.W.W.W.W.W.W.W.u.hXl.W.l.h.g.W.W.W.",
"Y.I.I.W.c.W.W.(.R.I.W./.R.W.I.I.W.I.I.W.I.U.gXg.h.gXh.s.l.k.k.U.gXjXfXf.fXP.W.W.I.W.c.W.I.W.I.I.c.W.W.c.c.U.g.u.g.P.k.Y.k.I.I.U.",
"fXP.I.I.I.I.K./.K.I.K./.K.I.I.I.c.I.I.I.I.y.g.I.I.j.f.P.u.f.k.I.U.u.P.I.j.g.I.I.I.I.c.I.I.I.I.I.I.I.I.I.I.Y.k.I.j.Y.j.y.j.U.y.f.",
"g.t.c.I.c.L.K./.U.c.G.(.L.I.I.I.c.I.L.c.c.y.d.c.c.L.e.L.L.r.P.L.L.c.c.c.L.f.L.c.L.c.I.c.c.I.I.L.I.c.L.I.c.L.g.L.t.s.g.e.s.t.d.t.",
"t.s.x.x.x.c.x.J.(.J.(.G.x.x.c.x.x.c.c.x.c.w.1.r.e.f.fXg.L.c.c.w.c.c.c.x.w.d.w.L.L.c.x.c.x.x.x.x.x.c.x.x.x.x.a.d.t.d.i.x.t.fXt.c.",
"8.p.x.x.x.] x.c./.(.G.x.x.x.| x.x.x.| x.x.c.a.fXfXd.r.1.w.x.i.fX1.r.x.x.e.f.| x.x.| x.x.x.x.x.x.x.| x.x.x.| | t.d.e.e.a.w.e.| x.",
"p.a.| x.| | | | { w.| ] ] ] | x.| | | | | x.| q.q.] w.2.w.q.1.9.<.fX7.e.2.i.| x.| | | | | | | | | | | | | | | | i.e.9.2.r.| | | ",
"dXq.| | | | | | ] { | | | | | } | | } | | | | } | | 7.<.} 8.i.| } 8.fXfX2.0.} | } | | | | | | | | | | | | | q.<.>.q.6.<.q.7.p.8.",
"7.} } } { { } } { { | { { } } } [ } } | [ } } | } } 2.8.| 6.<.} } } } 6.} } } } } | } | } } } } | } } } [ 0.2.,.6.| } 0.6.<.7.1.",
"{ { { { { { [ [ ' { { { [ [ [ [ [ [ [ [ [ [ [ [ [ 5.>.} [ 5.<.[ [ [ [ [ [ [ [ { } } 0.} [ [ [ [ [ [ [ [ [ 7.7.[ [ 6.7.[ 5.>.} { ",
"[ ` ^ [ [ ^ [ ^ [ [ ^ ^ ' ' Q [ ' ' ' ' R ' ^ [ _ 5.>.^ ^ 5.>.` [ [ [ ^ { { ^ ^ } 0.0.0.' ' { ^ { ^ { ^ { *.5.{ ~ >.>.7.^ ,.,.` ",
";.dX>./ ^ ^ ^ _ _ ^ ^ _ ^ ^ R y R ^ ^ d y d ^ ^ ^ 5.>./ _ 5.>.[ ^ Q _ _ _ ^ ^ ^ } ^ _ ' } ^ ^ ^ _ ^ ^ ^ ^ *.&.{ *.*.4.:./ ^ ,.*.",
"*.&.;.*.Q _ _ _ _ _ Q _ ^ T a a a _ ^ a R a U Q _ _ -.*.5.-.&._ Q _ _ _ _ _ _ ^ ` _ _ _ 0._ _ ^ { ' ^ _ Q 4.-.=.>.~ _ *.~ Q 4.:.",
"_ _ P -.! Q Q W Q Q Q Q Q T s Q a T T s Q p U Q W Q &.;.dX:.! W Q Q W Q W Q _ _ / ( Q _ / ( ( ' 5.` ` ( Q _ &.*.~ ( W *.&.W P :.",
"W Q ! =.P W W W G W W W W Y s W p T Y p W p Y E W W W K L W W W W Q W W W ( W W ` ( W _ / W _ / Q W ` ( _ W Q W W W W &.%.J &.%.",
"G G J =.P G G W G W G G G E u Y u Y Y p E u E E W G G W W W G G G G G G G G G G _ ! G ( ( ( / ( G G ( _ G G G G G W G S :.-.=.&.",
"F G $.=.S G G G G G G S E G I u p I I u I u G G G G G G W Z Z W G S G G G G G G S / S _ ) G ( G G G ( ! G G G G G G G G A &.L G ",
"< %.;.$.Z G S Z G S b t r E Z u I t t I u b G G Z F G G Z W Z Z Z G G G Z G G G G ! K G ) ) K Z G S ) S G G Z G Z G G Z G G Z G ",
"%.< $.Z Z Z Z Z Z Z u i i t I r b w c c i Z Z Z Z Z Z Z Z Z Z Z Z Z Z Z Z Z Z Z Z K ( Z ) K Z S ( ) W Z Z Z Z Z Z Z Z Z Z Z Z Z ",
"D N V D Z D D D D v r D D c r i c e b w c D D D D D Z D D Z D D D D D D D D D D Z K S D D D F ~ ( Z D D D D D D D D D D D D D Z ",
"V V V V V V D V N Z r N V V V D w e w w w D V V V V V N V V V V V V V V V F K ) ) K D A S D ) Z V V V V V V N V V V V V V D V V ",
"V V V N N V N V N N i v N N N x w e v v r e i v N V N N V N V V V V V V F ) F F D V V K K F J N N V N V V V N N V N V V N N N N ",
"N N N m N N N m N N x r q w r r 0 v v m h v 0 0 N N N N N N N N N N N V K D N N D C D J J F H N N N N N N N N N N N N N N N N N ",
"N m N N N N m N m N N x 4 4 x h i h r r N N N 0 h N N m m N m N N m N A H m m D L K H J J V J J N N N N N m m N N m N N N N N N ",
"m N N m N N N m N N m N N N m N 0 x 0 0 q N N q h N m m m m m N m N m A D m B L A N J N N m V J J V m m N m m N m m N m N N m N ",
"m m m m m m N N B N m m m N N g 0 h 0 h 4 m m 0 h m N m N N N m m m m D H V J A m m H B B B m m C F N m m m N m m N m m m m m m ",
"m m m m m m m B B H m m m m m x 9 m 0 h q 4 9 0 g m m m m m m m m m m m L L F m m B A C L L m m m H B > m m m m m m m m m m g m ",
"m m N N m m M B m B m m m m > 9 h $ 9 g m 9 0 g m m m $ $ m m m $ m m m m m m m m H V A M D C m m V C m $ m m m $ g x g $ h 9 h ",
"m m D M A m m B m B m m m $ g 9 g m 9 g > m $ m $ m m $ m m g m m $ m $ m m m $ B C m C m m H m m m C m m m m m m q 9 q m q 8 9 ",
"> > D $ M B B m B m > > $ m g 9 > m 3 g $ m $ m $ m $ $ $ $ $ m m $ m $ > > > $ C M > A M m C > > m H > $ $ $ $ $ q g 8 $ 8 g 9 ",
"> > V A B M M m B M > $ $ $ > 3 8 9 9 = $ > $ > $ $ B @.g > > +.3.M > > $ > $ > A > > A m > C m $ m C > > > $ > $ 8 f q g q g 9 ",
"> > , > M B , M B B B M $ > $ f 3 3 $ $ > $ > $ $ > +.+.o.: B @.n @.> $ > $ > > C , M C > > M C > C M > > $ > > $ f 8 8 f 1 1 8 ",
": $ : : > C C M , > > B > > > # $ > : $ # > : > $ M o., +.: z z g o.> : : > > : B H J M $ : > C L C > : $ : $ 9 8 + 1 9 3 8 q $ ",
"$ # , V B , B M B , # M > # # $ # $ # $ # # : : # , o.> @., z z , o.: $ $ # : : : m , : # $ : : > > : : # $ 8 1 6 9 9 f 1 1 8 # ",
": : M , , M , M , M M B : : : : : : : : : : : : # : o.k o.- l k l X.# : : # : : : : # : : : : : : # : : : > 5 = # f & 8 2 7 f : ",
": : M , M M , , # # , : : # : @ : : : # : @ : : : # k O.o.k X.; o.- # # # # # # : : # # : @ # # # # # : # # 5 O # # O 6 6 O 6 2 ",
"# # > M : , > , : @ : : : : # # : : @ @ # # : +.#.l : O.l #. .l o.# # # # # # # @ : : @ # # # # # # : @ # # & 6 6 6 2 6 O & + & ",
"# @ @ @ : , : , > # @ : @ @ : @ @ : @ @ @ # j X.k O.O.O.- j * O.- # @ : @ # # @ # # @ @ @ : @ : @ # : @ # @ @ + . O + 1 5 2 & : ",
"@ # @ # # , @ * : @ @ @ @ # @ @ @ @ @ @ o o ..* @ : j - .. .; O.: @ @ @ @ # @ # @ @ @ @ @ @ @ @ @ # @ # @ @ @ @ @ @ +       5 @ ",
"@ @ @ @ # , # , @ @ @ @ @ @ @ @ @ @ @ @ @ o ..; @ o o o .. .; ....k % @ @ @ @ @ @ @ @ @ @ @ @ @ @ @ @ @ @ @ @ @ o o . . O . 1 5 ",
"@ @ @ @ @ * , % @ @ @ @ @ @ @ @ @ @ @ @ @ @ ; ..* * l O.; ..% * ..O.X.% @ @ @ @ @ @ @ @ @ @ @ @ @ @ @ @ @ @ @ @ @ o   o + . o X ",
"@ @ @ @ @ @ % @ @ @ @ @ @ @ @ @ @ @ @ @ @ @ % .. . .O...O.% ..* @ % X.; @ @ @ @ @ @ @ @ @ @ @ @ @ @ @ @ @ @ @ @ @ o   o . O @ @ "
};
