/* XPM */
static char *c3a3cf75e6a14f52fe1a7978fc1db40bkWjLGOJJtUghq1Nl[] = {
/* columns rows colors chars-per-pixel */
"64 64 256 2 ",
"   c None",
".  c #0B040A",
"X  c #050507",
"o  c #13040C",
"O  c #1B040D",
"+  c #1B0A0B",
"@  c #160A09",
"#  c #17150C",
"$  c #160C16",
"%  c #181614",
"&  c #0C0F0E",
"*  c #27090C",
"=  c #350A0C",
"-  c #2A140C",
";  c #39140C",
":  c #290912",
">  c #370A13",
",  c #271418",
"<  c #381719",
"1  c #162D0C",
"2  c #27320E",
"3  c #2C1B23",
"4  c #48170C",
"5  c #541A0C",
"6  c #430816",
"7  c #481615",
"8  c #571C16",
"9  c #53080D",
"0  c #700F10",
"q  c #59240D",
"w  c #5C310E",
"e  c #4A2217",
"r  c #572518",
"t  c #492E10",
"y  c #65280D",
"u  c #762B0D",
"i  c #79320B",
"p  c #652717",
"a  c #742A15",
"s  c #693318",
"d  c #793617",
"f  c #68380E",
"g  c #491C21",
"h  c #542922",
"j  c #52322A",
"k  c #793A21",
"l  c #673226",
"z  c #751522",
"x  c #28460B",
"c  c #315013",
"v  c #17770C",
"b  c #356F0C",
"n  c #2D5B1C",
"m  c #505418",
"M  c #784516",
"N  c #70510F",
"B  c #4D710F",
"V  c #6A6812",
"C  c #724631",
"Z  c #4D762C",
"A  c #6D7927",
"S  c #5E582F",
"D  c #66734C",
"F  c #7C4C40",
"G  c #89010A",
"H  c #98040A",
"J  c #8F1214",
"K  c #A2070C",
"L  c #A91716",
"P  c #B51412",
"I  c #89350D",
"U  c #873B18",
"Y  c #973915",
"T  c #8F2C13",
"R  c #B62D12",
"E  c #BD1E24",
"W  c #8A3A27",
"Q  c #AD312B",
"!  c #CA380B",
"~  c #CD2E0E",
"^  c #C52118",
"/  c #95450B",
"(  c #8B4319",
")  c #994817",
"_  c #9B5519",
"`  c #8B4C09",
"'  c #A64818",
"]  c #AA5919",
"[  c #B35719",
"{  c #B64717",
"}  c #936E17",
"|  c #B7681B",
" . c #B8741D",
".. c #B76A0F",
"X. c #874825",
"o. c #9B4A27",
"O. c #965726",
"+. c #964C33",
"@. c #995437",
"#. c #895136",
"$. c #A54C22",
"%. c #A95928",
"&. c #B55924",
"*. c #A75936",
"=. c #B65437",
"-. c #996533",
";. c #AA6729",
":. c #B76926",
">. c #B87525",
",. c #A96837",
"<. c #B76839",
"1. c #B87637",
"2. c #A77334",
"3. c #D85707",
"4. c #CC4F15",
"5. c #DB6A06",
"6. c #C5691B",
"7. c #C9741D",
"8. c #DA720F",
"9. c #CD4D2A",
"0. c #C56827",
"q. c #C87725",
"w. c #D67A25",
"e. c #D77334",
"r. c #CE6C33",
"t. c #E1730E",
"y. c #935C48",
"u. c #885443",
"i. c #AE5B48",
"p. c #9A644A",
"a. c #926B53",
"s. c #A96747",
"d. c #B56C48",
"f. c #AA7645",
"g. c #B97546",
"h. c #A46D56",
"j. c #A77558",
"k. c #BB7659",
"l. c #977265",
"z. c #B87462",
"x. c #C57647",
"c. c #CC7351",
"v. c #D67C6C",
"b. c #2F920F",
"n. c #36A712",
"m. c #3C8C25",
"M. c #198B18",
"N. c #50930F",
"B. c #6C9411",
"V. c #46A916",
"C. c #54AE10",
"Z. c #6EB013",
"A. c #509922",
"S. c #6F8D30",
"D. c #52AD25",
"F. c #6FB029",
"G. c #56C615",
"H. c #77C617",
"J. c #6DC414",
"K. c #74CB2F",
"L. c #4DCB27",
"P. c #6BAA52",
"I. c #74D048",
"U. c #B28736",
"Y. c #8AB82F",
"T. c #8F9724",
"R. c #D88B0C",
"E. c #E48900",
"W. c #E79A00",
"Q. c #E58F11",
"!. c #EBA605",
"~. c #EBB00F",
"^. c #C9862A",
"/. c #D7872A",
"(. c #D99639",
"). c #CD8B34",
"_. c #E59937",
"`. c #E4902E",
"'. c #E8A53B",
"]. c #EEBB2A",
"[. c #DEBE3B",
"{. c #88CE16",
"}. c #8ED036",
"|. c #B7E835",
" X c #8BE129",
".X c #B88B55",
"XX c #8FB447",
"oX c #AB8575",
"OX c #BA977B",
"+X c #B4896D",
"@X c #A0A35D",
"#X c #C88447",
"$X c #D88648",
"%X c #DB964A",
"&X c #C69657",
"*X c #DA9655",
"=X c #C88E4F",
"-X c #E59A4C",
";X c #DDA445",
":X c #D9A759",
">X c #E6A848",
",X c #EEB54D",
"<X c #E9AA57",
"1X c #EBB859",
"2X c #F2B950",
"3X c #C78866",
"4X c #CE9470",
"5X c #D8B77A",
"6X c #CFA870",
"7X c #EAB964",
"8X c #EDB364",
"9X c #8DCD50",
"0X c #A5D54F",
"qX c #A7E253",
"wX c #94DB66",
"eX c #B0D86D",
"rX c #9BE36B",
"tX c #ABE572",
"yX c #9EE95C",
"uX c #F3C358",
"iX c #E5C543",
"pX c #ECC46A",
"aX c #F4C768",
"sX c #EBC777",
"dX c #F3CA76",
"fX c #F6D277",
"gX c #E8D778",
"hX c #CBF073",
"jX c #EBC02E",
"kX c #B99484",
"lX c #AE9D8E",
"zX c #C89C88",
"xX c #D29D89",
"cX c #D5A68D",
"vX c #D1B096",
"bX c #D3B4A4",
"nX c #ADDB89",
"mX c #DBC492",
"MX c #E9CC85",
"NX c #F5D589",
"BX c #EBD597",
"VX c #F5DB94",
"CX c #F4DB98",
"ZX c #ECCD8B",
"AX c #F7E199",
"SX c #E0F18A",
"DX c #D6CEAC",
"FX c #F2DEA9",
"GX c #EAD8AC",
"HX c #F6E2A9",
"JX c #F4E5B4",
"KX c #E5F0AD",
"LX c #E9E3C6",
"PX c #F3E9C7",
"IX c #F5EED3",
"UX c #E0DCC3",
/* pixels */
"                                                                                                                                ",
"                                                                                                                                ",
"                                                                                                                                ",
"                                                                                                                                ",
"                                                                                                                                ",
"                                                                                                                                ",
"                                                bXbXlX4XkX+XoXoXoXkXkXz.oXkXkXoXoX                                              ",
"                                      zXzX4XkX3X4X+X+Xk.4X+Xz.k.h.z.z.h.l.s.h.j.h.h.l.l.l.l.                                    ",
"                                vXzX4X3X3X3Xv.v.6X+Xd.c.x.d.d.=.d.d.*.i.j.+.$.h.h.p.y.a.a.y.a.a.                                ",
"                            cX3X3X3X4X4X=X3X*X4X3Xr.c.c.x.x.0.r.x.=.<.*.d.*.*.p.*.i.y.h.h.#.y.y.y.a.                            ",
"                          4X$X*Xc.#X4X*X*X*X4X*Xe.w.e.e.r.0.r.r.6.4.0.d.r.=.d.$.f.s.s.*.h.@.-.@.u.u.#.                          ",
"                        6X*X$X$X*X-X*X<X-X<X<X-X`.-X-Xe.-X$X`.t.w.w.r.x.&.&.<.g.s.=.$.s.*.*.o.p.@.*.u.u.a.                      ",
"                      8X*X`.-X-X_.2X8X8X2X8X8X8X1X8X8X<X8X<X'.'.`.<X/.e.7.0.:.&.[ &.<.<.%.,.*.*.*.+.+.+.y.#.                    ",
"                    6X`.`.-X-X<X,XaXdX7X7X8XdXdXZXdX7XdXdXdX7X2X>X_.<X%X/.e.#X4.r.x.<.] &.%.,.*.$.$.o.+.+.+.                    ",
"                  '._._.>X,X8X2XaXdXfXNXNXNXNXCXCXNXCXNXNXMXdXsX1X,X<X>X/.%X%Xw.7.0.0.1.[ &.1.,.g.*.) +.o.+.@.                  ",
"                  >X'.2XuX2XaXfXdXNXVXCXCXCXFXFXFXCXFXVXVXVXZXpXaX2X7X<X_.`.(.(.w.7.q.q.6.:.c.<.,.=.' ) ' +.+.                  ",
"                  2XpX,XuXuXfXNXNXVXVXHXHXHXJXHXJXHXAXAXVXVXBXsXpX1X1X1X>X'.'.;X/.w.7.7.6.| <.x..X<.$.Y +.$.o.o.                ",
"                7X1X,XuXaXaXfXNXVXVXAXHXHXHXJXJXJXAXAXAXNXNXMXfXaXpXpX1X7X6X'._././.q.7.7.6.6.=X<.&.*.) $.) ' o.                ",
"                aX,X2XaXfXVXVXAXAXAXAXAXAXAXAXAXAXAXNXNXNXfXfXfXpXpX1X,X;X>X_.`.^.^.q.q.7.| ..:.[ ] ' ' ' ) ) o.                ",
"                1X7XuX5XMX5X5X7X7XaXdXdXfXfXfXaXuXuXuX7X2X2X>X'.`.'._./.R./.7.7.6.8.7.q.>.[ [ ' [ [ ' %.' ) ' o.                ",
"                  <XmXDXmXlXoXp..XvXmXmXNXmXsXpXsXsXgXZXsX6Xq.{ { ' [ ' ) ' ' ' ] | :.%.] ' Y Y / ) Y Y Y Y Q o.                ",
"                  eXDXzXz.=.v.bXUXLXLXGXmXlXl.a.z.3Xc.i.Q Q =.=.Q Q L J J L G z p p l p p p u u a d a 8 8 z W W                 ",
"                  9Xj.R R 6.<XMXgX,X[.U.Y z 9 9 9 K R ! 4.4.q.$X$X$X4.4.4.R L 0 , , : O : 6 r p W #.#.j g j D D                 ",
"                H.F.=.9.e.-X-X-XjXjX~.Q.^.R L K G K ! 5.E.!.!.~.~.!.W.5.3.^ L z < < > 6 8 p l W #.y.y.#.k l D m.m.              ",
"               X{.C.] 9.e.8XBXGXsXuX].!.Q.5.3.! P K ! 5.E.W.!.!.W.E.5.3.! ^ J < g 6 9 0 J Y Q { { Q L L T z C n A.  A.A.        ",
"              {.H.J.} 9.e.$X8X8X,XjX~.~.!.t.3.~ P H 9 I ..8.E.8.5.3.3.! R z 6 6 9 9 y J ^ 4.t.9.4.! P K L i.oXZ A.A.D.K.        ",
"          K.K.J.K.9X@Xe.t.t./.Q.~.!.!.!.E.5.~ P K 9 > = > F x.9.R L K J J z z W A C.D.S.4Xv.v.c.9.9.E P E z.zXa.b N.J.K.        ",
"          D.C.Z.C.F.S T.Y.^.7.5.5.8.8.5.3.! ^ H 0 > 6 j lXDXGXBX@XV V ` C k U 2.}.G.V.n.} E E E E E E P L L L d b B Z.K.        ",
"            N.C.H.A j m }.{.Z.} R ~ ! 4.P P P T k a.@XGXKXKXhXhXqXb N.N.N.B.Z.Z.J.V.D.D.N G H H K K K K H G G p b b C.H.        ",
"                }.XXS t B.}.{.B.N ` ` @XU.} T.Y.}.0XqXqX|.|.|.hX}.v b.D.D.F.J.n.b.M.m.m.B i G G G H H G G 0 0 p S.n.C.C.        ",
"                {.{.B.B.A.}.Z.N.b.v b.wXwXrXI.L.b.b.V.V.J.}.qXrX Xb.L.wXwXwX9Xn.M.v x b x B 0 G G J } W G G u V P.J.C.C.        ",
"                   XC.  9X0XH.C.N.n.V.J.C.S.I.I.G.V.K.I.I.rXtXF.F.b.L.nXnXtXI.n.M.M.x 1 . b S.t 9 T.qXF.V B.S.P.XX}.{.N.M.      ",
"                        tXtX{.H.B.N.G.V.c 2 c K.}.9X9XrXtXyXqXB b b.L.yXyX9XV.M.n.I.Z X X n b.b m.D.0XF.V.Z.9X9XY.0XF.v         ",
"                        tXhXqX}.B.C. XF.2 # # m 9XyXrXyXtXeXS.x x c C.F.F.B.1 2 b.K.D.2 & 1 x n b x B N.N.B.@XP.Y.}.N.v         ",
"                      nXDXeXtXqXH.H.F.2 @ % 2 x B A S.A A m - # # # 2 2 B 2 & & c 9XwXP.n c b 2 2 x # 1 B B S.S.XXD.v           ",
"                      -.X.s -.}.T.N q 4 4 5 5 4 ; = ; = = ; ; * * * O + # # & . # m Z Z n c 2 # & X X 1 B B.S.B.F.b.M.          ",
"                  .X>.} M i M } ` ` ` ` I / I u y 5 p a 9 0 0 u 5 4 5 ; = ; = * O * o . X X . . & 1 2 c B.T.B.{.Z.A.            ",
"                2.U..X ... . . . . .| ..;.) / P K ( 2.| ] J I / I p M u y 5 4 = * 4 = = O o & o . # # 1 m V B.                  ",
"                U.U.U. .U.^.=X).&X.X.X=X.Xf.] 9.P s..X>.^.] ;.] ( p p p I y y i u y 5 9 6 ; : = * o O $ < g                     ",
"                2. .;.| 2..X.X1..X.X+X6X&Xh.) q.e.).6X&X5X5XvX;.X.d i i _ I I ) ;.[ / u y 5 q 5 4 = > > 7 h j                   ",
"                2. . .f..Xf.:.<.lX@Xa..X.X-.C #.5X6XzXDXBXDXvX>.X.d ( / 1._ u 2..XU.W Y Y I ( a 5 9 6 > g j l                   ",
"                -.U.U.a.a.f.g.@X4X&Xj.W _ X.C #.5XpXmX5X5X6XO.d U a U d ( U 7 X._ _ T H Y U p y 7 > : $ : j C                   ",
"                O.2.f.F -..X&X6X,.;.M 8 o.X.F f.1.| | Y } ( s O.d 7 5 y r s r ] i u T 0 T 0 7 6 : : . $ $ 3 j                   ",
"                C ( O.l M ] ] X.( r 7 h X.*.f.2.k U u I U 5 e s 5 ; > ; 7 q s o.y u y 5 5 7 4 : o . . $ 3 3 j                   ",
"                  l p 7 7 8 y p a 5 6 p U Y I i W O.U p p 7 > > = O o o O = ; 7 4 4 = : : * * o . . . $ $ $                     ",
"                    l g 7 g g 8 8 8 g g 7 8 8 8 8 a k l a p 8 7 : O O O O : > : > > : : O O o o o o . $ $ <                     ",
"                  DXbXbXvXbXbXbXbXbXvXvXcXzXzXxXcXcXcXcXcXxX4X4Xc.d.s.h.d.f.,.,.*.X.k d p l e h j h h p l M p.                  ",
"                  UXPXLXIXPXIXIXIXIXPXIXIXPXPXPXJXPXPXPXJXFXFXBXZXMXMXsXsX:X;X%X).).).U.>.>.1.;.;.,._ O._ _ @.                  ",
"                  LXLXLXLXLXLXPXPXPXJXJXJXJXJXFXFXFXFXFXHXGXBXZXMXsXpX7X1X;X(.^.^.q. .>. .| >.1.1.;.] _ _ _ O.                  ",
"                  GXGXJXJXJXFXJXJXFXHXFXCXBXBXCXBXCXBXBXBXNXgXdXsXpX1X>X;X(.^.^.7. .| ..] ] %.:.;.O./ ) ( (                     ",
"                    BXBXBXCXCXVXNXNXMXgXsXpXpXpXpXsXsXpXpXaXpX1X1X:X(.).).^.7...| ] ] _ _ / / / / I I i u f                     ",
"                    &X6X:X:X:X<X<X>X(.(.^.^.^./.(._.;X>X;X>X(.(.).q.|  .>.] ' / ` I i d d y q 5 4 4 - * @ X                     ",
"                    j e e t e q q q q 5 4 4 4 5 q w w y y y w q q q q 4 4 ; * * + + - , + . X X X X X X X X                     ",
"                    S e e < e ; ; - - + * + + # @ + + + @ @ @ o . . X X . . X X . $ % % . . . . . X . . .                       ",
"                      M M M N M M M M f f w w w w w w w w t q e ; ; ; - - - - - 3 < , * + + +                                   ",
"                                                                                                                                ",
"                                                                                                                                ",
"                                                                                                                                ",
"                                                                                                                                ",
"                                                                                                                                ",
"                                                                                                                                ",
"                                                                                                                                ",
"                                                                                                                                ",
"                                                                                                                                "
};
