/* XPM */
static char *_55644c36cf4458b87c1410c3dc74428NP50xqWsTuBhcjca[] = {
/* columns rows colors chars-per-pixel */
"32 32 225 2 ",
"   c None",
".  c #0A0407",
"X  c #150A0C",
"o  c #1A0712",
"O  c #12110C",
"+  c #2C0C0C",
"@  c #340D0D",
"#  c #24130D",
"$  c #2A120C",
"%  c #381A0B",
"&  c #2B0E12",
"*  c #370D14",
"=  c #2A1819",
"-  c #381315",
";  c #1A300C",
":  c #292B0E",
">  c #25350C",
",  c #481A0D",
"<  c #441310",
"1  c #491A18",
"2  c #531C14",
"3  c #51180C",
"4  c #661D0E",
"5  c #680D18",
"6  c #49210D",
"7  c #45270D",
"8  c #522A0E",
"9  c #55300F",
"0  c #4C2716",
"q  c #532A11",
"w  c #562015",
"e  c #5D3318",
"r  c #66270E",
"t  c #7B280C",
"y  c #6D2615",
"u  c #772917",
"i  c #673217",
"p  c #7C3B13",
"a  c #783718",
"s  c #70320D",
"d  c #54252C",
"f  c #652E24",
"g  c #663526",
"h  c #7D3C27",
"j  c #2D4815",
"k  c #2B4D10",
"l  c #306A12",
"z  c #3F5922",
"x  c #3C6624",
"c  c #55471B",
"v  c #5B5212",
"b  c #724711",
"n  c #527317",
"m  c #5D5423",
"M  c #7C4825",
"N  c #55682B",
"B  c #78742E",
"V  c #6A6D43",
"C  c #98060D",
"Z  c #871717",
"A  c #910C11",
"S  c #B21511",
"D  c #843A16",
"F  c #983214",
"G  c #8E330D",
"H  c #AA2317",
"J  c #AB391A",
"K  c #813E26",
"L  c #983A29",
"P  c #AD3328",
"I  c #C7390C",
"U  c #C42D21",
"Y  c #83441D",
"T  c #894319",
"R  c #974B18",
"E  c #9B5517",
"W  c #944C07",
"Q  c #A44A1B",
"!  c #A7571A",
"~  c #B7511C",
"^  c #90611A",
"/  c #A5671D",
"(  c #B8691D",
")  c #BB721F",
"_  c #874923",
"`  c #9E4A22",
"'  c #984C2C",
"]  c #89552C",
"[  c #965726",
"{  c #8D5738",
"}  c #975939",
"|  c #904A31",
" . c #A85929",
".. c #B65425",
"X. c #A45D3A",
"o. c #AF522B",
"O. c #8D7929",
"+. c #A56329",
"@. c #B7652B",
"#. c #AC732B",
"$. c #B87729",
"%. c #AA6439",
"&. c #B4633A",
"*. c #B86A3A",
"=. c #B67638",
"-. c #A6763B",
";. c #D14F09",
":. c #D5690D",
">. c #CE720D",
",. c #C84035",
"<. c #C36D2A",
"1. c #C97623",
"2. c #CB7A25",
"3. c #C36635",
"4. c #D2722E",
"5. c #8E5747",
"6. c #925F4B",
"7. c #A35D40",
"8. c #9C684C",
"9. c #A96344",
"0. c #A97645",
"q. c #B07A47",
"w. c #9D7664",
"e. c #A97763",
"r. c #B27A64",
"t. c #C4754A",
"y. c #E37D42",
"u. c #238811",
"i. c #45860B",
"p. c #49951A",
"a. c #5F991D",
"s. c #4A8315",
"d. c #789618",
"f. c #649C1E",
"g. c #57AD15",
"h. c #4DB01E",
"j. c #64AE17",
"k. c #6AB816",
"l. c #7ABC1B",
"z. c #5C8631",
"x. c #649721",
"c. c #7A912D",
"v. c #58AF26",
"b. c #51AE29",
"n. c #68A728",
"m. c #78B438",
"M. c #6FB128",
"N. c #77C43A",
"B. c #6AC532",
"V. c #78B645",
"C. c #6ACC47",
"Z. c #859B0E",
"A. c #918137",
"S. c #B68439",
"D. c #86BC37",
"F. c #81AF22",
"G. c #D7881E",
"H. c #DF8107",
"J. c #E38709",
"K. c #C98B2C",
"L. c #D68725",
"P. c #D9893A",
"I. c #DC963A",
"U. c #CD923E",
"Y. c #E0953F",
"T. c #D9AA36",
"R. c #ECAF13",
"E. c #89CB1E",
"W. c #8FD52E",
"Q. c #9A8B4B",
"!. c #BA844F",
"~. c #BB8C58",
"^. c #BF9156",
"/. c #95B34A",
"(. c #B98B69",
"). c #BE9571",
"_. c #D59C4D",
"`. c #D68E53",
"'. c #C69253",
"]. c #DA975A",
"[. c #CC8548",
"{. c #E59B42",
"}. c #E29A58",
"|. c #DAA44B",
" X c #D8A956",
".X c #E8A749",
"XX c #E6AB51",
"oX c #EDB95A",
"OX c #EAB458",
"+X c #F0BA4E",
"@X c #C98C67",
"#X c #CA9666",
"$X c #C4977D",
"%X c #D19368",
"&X c #D9B466",
"*X c #D3B378",
"=X c #CEA675",
"-X c #EEBA6A",
";X c #E9B766",
":X c #F1BC67",
">X c #93D74F",
",X c #9BDA66",
"<X c #AEE66E",
"1X c #E8C959",
"2X c #F2C769",
"3X c #EAC67A",
"4X c #F6D47A",
"5X c #F1C870",
"6X c #C6E76D",
"7X c #D6B699",
"8X c #D2B58A",
"9X c #D6BEAA",
"0X c #D4BBA6",
"qX c #DEC795",
"wX c #EACA82",
"eX c #F3D489",
"rX c #F6D889",
"tX c #F4DC9A",
"yX c #F6D891",
"uX c #F1CE82",
"iX c #F7E19D",
"pX c #F3DEA2",
"aX c #F6E4AA",
"sX c #F5E7BA",
"dX c #ECE3BE",
/* pixels */
"                                                                ",
"                                                                ",
"                                                                ",
"                    $X$X$X@X(.r.r.r.e.e.e.w.                    ",
"                $X%X@X@X`.t.t.3.9.9.9.7.9.8.8.6.6.              ",
"            ].`.`.}.}.}.{.[.P.4.4.4...&.%.9.%.} } 5.            ",
"          {.{.}.OX-X-X-X;X-X:X.X{.Y.4.<.@.@. .X.' ' {           ",
"          {.+X2X5XeXeXtXtXyXrX3XoXXXI.P.4.<.@.*.&.` ' '         ",
"        oX+X2XuXyXaXaXaXaXtXyXuX2XoXXX{.L.1.1.=.*.` ` `         ",
"        OX-XwX3XuXeXrXrX4X4X5XOX.XI.I.2.1.1.( ~ ! Q Q `         ",
"        &X8X@X).qXqX=X(.#X%X[.<.o.J J F D _ D D F h u K         ",
"        D.&.3.OX1XT...Z A ;.>.G.L.:.I Z * * 2 h | M g V         ",
"      W.l.@.y.;X1XR.H.I S G >.J.:.;.H 5 2 y P ..P H L B p.v.    ",
"      k.M.A.K.G.J.>.:.S 5 w w. X/ T a Y x.x.&.U U S P { n k.    ",
"        M.N F.Z.W / ! ^ A./.6X6XM.p.n.j.h.u.b C C C A u s.g.    ",
"        E.f.D.k.i.M.V.N.g.B.>X>Xv.C.,Xv.u.k j i K O.b B m.g.    ",
"            <XW.j.h.j n C.>X,Xz.l M.m.l b.x ; l n a.j./.D.p.    ",
"          Q.Q./.d.v % 7 c m e % # : > O z z.j ; ; ; n x.v.      ",
"        S.#.E / / E R G Z Y t t r 3 1 @ @ $ X X O : N d.        ",
"        =.$.=.U.!.^.!. .3.'.'.=.p a T p Y r 3 < & & 0           ",
"        #.-.q.!.(.8.} } #X*X*X0.D Y T _ +.F G y < & 1           ",
"        ] ] { -._ i _ } +.` M i 2 , w a u r 4 * o o =           ",
"          g f g f f M D K K g w - & - 1 , * + # o o =           ",
"          0X0X9X9X0X0X7X7X7X7X=X#X~.!.-.+.[ _ M M a _           ",
"          dXsXsXsXsXaXpXpXtXtXeX3XoX|.K.1.) ( @.+.R R           ",
"          *X*X*X&X X_._. X X X|.U.$.) ! W T p s r q 6           ",
"          m e e e q 6 6 q q q 0 7 % % $ # = X X . . .           ",
"                    9 9 8 8 7 7 % $ $ = = O                     ",
"                                                                ",
"                                                                ",
"                                                                ",
"                                                                "
};
