/* XPM */
static char *_e8c736be0bd408fbdbcdd9dc266950ez7N7aIg8Dcf5Ndls[] = {
/* columns rows colors chars-per-pixel */
"64 64 155 2 ",
"   c None",
".  c #0D0505",
"X  c #0D0A05",
"o  c #070905",
"O  c #130D04",
"+  c #1C0807",
"@  c #100D08",
"#  c #0A1305",
"$  c #0C1C02",
"%  c #1C1304",
"&  c #141008",
"*  c #151205",
"=  c #210A0A",
"-  c #330B0D",
";  c #221505",
":  c #2A1A02",
">  c #251608",
",  c #2D1B09",
"<  c #261E06",
"1  c #311F04",
"2  c #331E0A",
"3  c #112402",
"4  c #112802",
"5  c #173D01",
"6  c #2F2704",
"7  c #2F2907",
"8  c #3D2602",
"9  c #302907",
"0  c #382A03",
"q  c #352209",
"w  c #3C220C",
"e  c #312204",
"r  c #243703",
"t  c #243B02",
"y  c #471A0E",
"u  c #511511",
"i  c #551911",
"p  c #5C1813",
"a  c #6D1917",
"s  c #711A17",
"d  c #741A18",
"f  c #402702",
"g  c #452A02",
"h  c #44270E",
"j  c #47290E",
"k  c #4B2C08",
"l  c #473A02",
"z  c #533202",
"x  c #5A3701",
"c  c #5E3901",
"v  c #4D2C10",
"b  c #512F10",
"n  c #533011",
"m  c #5D3613",
"M  c #5F3813",
"N  c #653D01",
"B  c #683E00",
"V  c #613813",
"C  c #284100",
"Z  c #234C02",
"A  c #225201",
"S  c #235B00",
"D  c #266300",
"F  c #276C00",
"G  c #296C00",
"H  c #2A7100",
"J  c #2C7B00",
"K  c #594602",
"L  c #5C4901",
"P  c #574502",
"I  c #6E4200",
"U  c #614E00",
"Y  c #704300",
"T  c #645201",
"R  c #6A5501",
"E  c #6E5901",
"W  c #735D00",
"Q  c #7A6300",
"!  c #821A1C",
"~  c #8D1C1E",
"^  c #911D1F",
"/  c #9C1F21",
"(  c #A52023",
")  c #A92224",
"_  c #B42426",
"`  c #BA2527",
"'  c #BC2628",
"]  c #C32729",
"[  c #C7292A",
"{  c #CC2A2C",
"}  c #D72D2D",
"|  c #DE2F2F",
" . c #E02F2F",
".. c #824E00",
"X. c #865101",
"o. c #865509",
"O. c #915700",
"+. c #9A5C00",
"@. c #806800",
"#. c #9B6108",
"$. c #907500",
"%. c #957900",
"&. c #9A7D00",
"*. c #A66300",
"=. c #AE6700",
"-. c #AF6800",
";. c #B06700",
":. c #B36B00",
">. c #BD7100",
",. c #C57500",
"<. c #CE7C00",
"1. c #D27D00",
"2. c #318400",
"3. c #348B00",
"4. c #359300",
"5. c #3A9B00",
"6. c #3CA300",
"7. c #3FAA00",
"8. c #42AD00",
"9. c #43B200",
"0. c #9D8000",
"q. c #A38600",
"w. c #A78900",
"e. c #A88A00",
"r. c #B39100",
"t. c #CF8008",
"y. c #D48103",
"u. c #D88100",
"i. c #D4850B",
"p. c #D5880F",
"a. c #C29D00",
"s. c #D68C14",
"d. c #D98E16",
"f. c #D9911C",
"g. c #CEA700",
"h. c #DFB500",
"j. c #E5BA00",
"k. c #DD9D2C",
"l. c #DB9824",
"z. c #DFA435",
"x. c #E0A02D",
"c. c #E0A73A",
"v. c #EFC200",
"b. c #F5C600",
"n. c #FFCF00",
"m. c #FFD200",
"M. c #E3AE43",
"N. c #E5B54C",
"B. c #E9B94F",
"V. c #E8BD57",
"C. c #E8BE58",
"Z. c #EDC45D",
"A. c #EBC764",
"S. c #ECC967",
"D. c #EDCC6C",
/* pixels */
"                                                                                                                                ",
"                                                                                                                                ",
"                                                                                                                                ",
"                                                                                                                                ",
"                                                                                                                                ",
"                                                                                                                                ",
"                                                                                                                                ",
"                                                                                                                                ",
"                                                                                                                                ",
"                                                                                                                                ",
"                                                                                                                                ",
"                                                                                                                                ",
"                                                                                                                                ",
"                                                                                                                                ",
"                                                                                                                                ",
"                                                          @ % ; ; % @                                                           ",
"                                                  ; f N o.+.*.=.=.*.+.o.N f %                                                   ",
"                                              : B *.,.d.Z.i.1.1.1.1.V.k.1.<.*.I :                                               ",
"                                          O c :.1.1.<.s.V.y.1.1.1.1.N.k.1.1.1.1.:.N O                                           ",
"                                        ; X.1.1.M.l.1.1.y.1.1.M.s.1.1.1.1.i.N.i.1.<.X.;                                         ",
"                                      % O.1.1.1.C.k.<.1.1.1.y.S.f.1.1.1.<.i.A.s.1.1.1.O.%                                       ",
"                                    @ X.f.y.1.1.p.1.p.f.1.1.<.s.y.1.1.i.f.1.p.1.1.1.f.i...O                                     ",
"                                    x t.D.f.1.1.1.<.k.A.<.1.1.1.1.1.<.k.A.1.1.1.1.1.S.l.<.x                                     ",
"                                  : :.y.z.p.<.1.1.1.s.z.1.1.<.1.1.<.1.d.z.1.1.1.1.1.c.s.1.-.>                                   ",
"                                  I <.<.1.1.1.1.1.1.<.1.1.1.<.1.1.1.1.1.1.1.1.1.1.1.1.1.1.1.B                                   ",
"                                % =.y.1.<.1.1.<.1.1.1.1.1.1.1.1.1.<.<.1.1.<.1.1.1.1.<.1.1.1.*.%                                 ",
"                                g <.1.1.1.1.1.1.1.1.1.<.<.1.1.1.1.<.1.1.1.<.<.1.1.1.1.1.1.1.,.8                                 ",
"                                I y.<.1.1.1.1.1.<.1.1.1.1.1.1.1.1.1.1.1.1.1.1.1.1.1.1.1.1.1.1.B                                 ",
"                              X O.1.1.1.1.1.1.1.1.1.1.1.1.1.1.1.1.1.1.1.1.1.1.1.1.1.1.1.1.1.u.X.                                ",
"                              O +.y.1.1.1.1.1.1.1.1.1.1.1.1.1.y.1.1.1.1.1.1.1.1.1.1.1.1.1.1.u.O.X                               ",
"                                z =.=.=.;.;.=.;.;.-.=.=.;.;.;.;.;.;.;.;.;.;.;.=.;.;.;.;.;.;.*.g                                 ",
"                              # 4 t C C C C C C C C C C C C C C C C C C C C C t C C C C C C t $ o                               ",
"                            4 2.6.8.8.8.8.8.8.9.6.6.7.7.9.6.4.8.9.8.9.9.9.8.8.8.9.8.9.7.7.8.8.6.G $                             ",
"                            D 4.5.6.S 2.9.9.5.S 7 7 S J H r < H 8.9.4.A S 5.9.9.9.9.2.t r F 3.G 6.H #                           ",
"                            4 $ 3 9 u q A A q d ' ] / a s ( ` i t Z 2 ~ ! 7 H 4.3.A y ( _ s y . 5 S #                           ",
"                                - ' } { / ( [  .| |  .|  .|  .} _ ( {  .| ' s y i ~ {  .|  ._ =                                 ",
"                                + a s s d d s s s s s s s s s s d d s a s s s a s s s s s a a .                                 ",
"                            * T q.e.q.q.q.q.q.q.q.q.q.q.q.q.e.e.e.e.e.e.e.e.e.e.e.e.e.e.q.q.q.$.l                               ",
"                            E j.&.R L K K K K K K L P P P P Q b.m.m.m.m.m.m.m.m.n.m.j.W P P R w.h.T                             ",
"                            E L , h v v v v v v v v v v v v , W b.m.g.R W j.n.n.n.b.P 2 v v h > W r.%                           ",
"                            o + m V V V V V V V V V V V V V m , L Q 0 w 2 L b.m.m.&., M V V V m % 6                             ",
"                              ; V V V V V V V V V V V V V V V M h w n V V 2 L a.%.e n V V V V M ;                               ",
"                              O v V V V V V V V V V V V V V V V V V V V V V w 1 2 n V V V V V j X                               ",
"                                X ; > > > > > > > > > > > > > > > > > > > > > > > > > > > > ; X                                 ",
"                                % B Y I I Y I I Y I I Y I I I I Y Y I I I I Y I I Y Y I I Y z X                                 ",
"                                1 ,.y.1.1.1.1.1.1.1.y.1.1.y.y.1.y.y.y.1.y.1.1.1.y.1.y.1.1.u.+.&                                 ",
"                                : >.1.1.1.1.1.1.1.1.1.1.1.1.1.1.1.1.1.1.1.1.1.1.1.1.1.1.1.1.O.@                                 ",
"                                O ..<.<.<.<.1.1.<.<.<.1.<.1.<.1.1.<.<.<.1.1.<.<.1.<.<.<.1.,.z                                   ",
"                                  % g z z z z z z z z z z z z z z z z z z z z z z z z z z 8                                     ",
"                                                                                                                                ",
"                                                                                                                                ",
"                                                                                                                                ",
"                                                                                                                                ",
"                                                                                                                                ",
"                                                                                                                                ",
"                                                                                                                                ",
"                                                                                                                                ",
"                                                                                                                                ",
"                                                                                                                                ",
"                                                                                                                                ",
"                                                                                                                                ",
"                                                                                                                                ",
"                                                                                                                                ",
"                                                                                                                                "
};
