/* XPM */
static char *_466455ddb6f4c92d26a56203dbef508ccnKL6Wxbb75eRlN[] = {
/* columns rows colors chars-per-pixel */
"64 64 244 2 ",
"   c None",
".  c #3A3719",
"X  c #753337",
"o  c #5B3418",
"O  c #27591B",
"+  c #356C1C",
"@  c #184929",
"#  c #195828",
"$  c #194836",
"%  c #155833",
"&  c #254528",
"*  c #265928",
"=  c #32562F",
"-  c #17632A",
";  c #176E36",
":  c #346728",
">  c #377A29",
",  c #366938",
"<  c #287230",
"1  c #1E5C1B",
"2  c #4C4E1B",
"3  c #53781E",
"4  c #4E5134",
"5  c #6E4A25",
"6  c #456929",
"7  c #457829",
"8  c #566634",
"9  c #51762F",
"0  c #6C6F32",
"q  c #7B3A44",
"w  c #305642",
"e  c #3B6559",
"r  c #584658",
"t  c #714A53",
"y  c #736C58",
"u  c #524F73",
"i  c #675571",
"p  c #547158",
"a  c #9B170B",
"s  c #8E140C",
"d  c #A41B0C",
"f  c #AA180A",
"g  c #B51C0B",
"h  c #BA1C09",
"j  c #A81C11",
"k  c #B51C12",
"l  c #962812",
"z  c #AB220D",
"x  c #A9260D",
"c  c #B8260D",
"v  c #A92518",
"b  c #B72814",
"n  c #B83717",
"m  c #B33410",
"M  c #8D3635",
"N  c #B83729",
"B  c #A8342A",
"V  c #C61C09",
"C  c #C5290A",
"Z  c #CA370D",
"A  c #DC3D0D",
"S  c #D6370C",
"D  c #C82915",
"F  c #D62911",
"G  c #C53413",
"H  c #CB3613",
"J  c #C33C13",
"K  c #CD3A12",
"L  c #C93819",
"P  c #D33D13",
"I  c #D83A16",
"U  c #D22F0C",
"Y  c #E4380C",
"T  c #C53824",
"R  c #C53F31",
"E  c #8E461D",
"W  c #BA4B18",
"Q  c #BA4637",
"!  c #B5522E",
"~  c #937537",
"^  c #B66D30",
"/  c #AD652C",
"(  c #D6470C",
")  c #C74416",
"_  c #DB4413",
"`  c #DA4B15",
"'  c #D64818",
"]  c #DC531A",
"[  c #D95718",
"{  c #D04E14",
"}  c #E6480D",
"|  c #E7580D",
" . c #E44B13",
".. c #E44917",
"X. c #E55212",
"o. c #E5531C",
"O. c #E95A17",
"+. c #D76A1A",
"@. c #EC690E",
"#. c #EC651C",
"$. c #EC6C1C",
"%. c #E96517",
"&. c #F16A16",
"*. c #EA7719",
"=. c #F2761B",
"-. c #F2770F",
";. c #D94323",
":. c #D95924",
">. c #CA502C",
",. c #E65C22",
"<. c #F05820",
"1. c #D76826",
"2. c #D26F30",
"3. c #E56823",
"4. c #ED7522",
"5. c #E97A26",
"6. c #F27A23",
"7. c #F36A25",
"8. c #8D514B",
"9. c #AD4E49",
"0. c #946F54",
"q. c #BB724B",
"w. c #90716C",
"e. c #A6636D",
"r. c #C65446",
"t. c #D07253",
"y. c #D8766D",
"u. c #3E9139",
"i. c #5A8934",
"p. c #58993A",
"a. c #4F892F",
"s. c #678A28",
"d. c #788B39",
"f. c #70902F",
"g. c #74A334",
"h. c #6A851D",
"j. c #30824A",
"k. c #4A9346",
"l. c #589745",
"z. c #589A58",
"x. c #4F894D",
"c. c #6A9847",
"v. c #6E9052",
"b. c #70A450",
"n. c #5C9963",
"m. c #528E6B",
"M. c #659D6B",
"N. c #6D9672",
"B. c #68A967",
"V. c #73AA73",
"C. c #5AA842",
"Z. c #73C56E",
"A. c #859827",
"S. c #93902E",
"D. c #AD922D",
"F. c #93A837",
"G. c #A4B23B",
"H. c #B2AE2C",
"J. c #D4881B",
"K. c #F5851A",
"L. c #F59317",
"P. c #D38930",
"I. c #EB862D",
"U. c #F48525",
"Y. c #F48B28",
"T. c #F69727",
"R. c #E98937",
"E. c #E79538",
"W. c #F49636",
"Q. c #F08C2E",
"!. c #F7A53A",
"~. c #F6AA30",
"^. c #908E4F",
"/. c #B08F52",
"(. c #8CAB43",
"). c #8B926F",
"_. c #AC956E",
"`. c #8CB371",
"'. c #B2A96A",
"]. c #D28A4B",
"[. c #E79944",
"{. c #F6AA43",
"}. c #F8B548",
"|. c #EBAF4C",
" X c #D9A670",
".X c #FACA52",
"XX c #E7C953",
"oX c #2C5B98",
"OX c #32639A",
"+X c #3B6899",
"@X c #346A9A",
"#X c #2A66A7",
"$X c #346CA7",
"%X c #3A74AA",
"&X c #377AB7",
"*X c #2A70B3",
"=X c #1D5596",
"-X c #4E6F93",
";X c #6B778E",
":X c #4679A9",
">X c #447FB5",
",X c #537EA8",
"<X c #AB7F80",
"1X c #6A8498",
"2X c #708E8A",
"3X c #74AF8F",
"4X c #4C84AB",
"5X c #5489AC",
"6X c #4687B9",
"7X c #568CB8",
"8X c #5794BC",
"9X c #6499B7",
"0X c #698EAB",
"qX c #77ABB0",
"wX c #54BAA0",
"eX c #72C68E",
"rX c #65CBAD",
"tX c #3B85C3",
"yX c #458CC3",
"uX c #5398C6",
"iX c #4A91C6",
"pX c #649CC6",
"aX c #5CA4D1",
"sX c #69A9C9",
"dX c #7BB9CA",
"fX c #69B3D6",
"gX c #76B9D3",
"hX c #72ADCE",
"jX c #8A8F8B",
"kX c #92AF8D",
"lX c #B7AD8C",
"zX c #91AFAE",
"xX c #ABB3AF",
"cX c #A19999",
"vX c #D2AC8A",
"bX c #F5B698",
"nX c #C8B2AD",
"mX c #8BC78F",
"MX c #89BBD1",
"NX c #90BFCB",
"BX c #B2B3C7",
"VX c #CDBEC3",
"CX c #90C2D8",
"ZX c #A6C8D5",
/* pixels */
"                                                                                                                                ",
"                                                                                                                                ",
"                                                          l.l.          kX                                                      ",
"                                                          p.a.          N.                                                      ",
"                                            kX            f.h.p.      N.M.                                                      ",
"                                            V.M.          A.3 u.      M.n.M.                                                    ",
"                                            B.k.N.      H.S.3 u.      p.k.V.                                                    ",
"                                            z.a., m.    H.D.h.+     l.g.p.3X                                                    ",
"                                            z.i.7 w     G.H.9 7     (.g.a.V.    n.3X                                            ",
"                                            m.S.s.- e   G.A.> : B.N.A.h.a.      z.B.                                            ",
"                                              c.F.> - v.F.A.+ * B.v.f.3 ,     k.C.B.                                            ",
"                                              v.G.p.# , A.A.: : l.d.3 & p     a.>                                               ",
"                                      kX      v.F.b.; * f.A.O * 9 a.: @ x.  a.+ -                                               ",
"                                      B.M.    m.d.(.u.# s.h.O * 6 , $ ; n.c.s.1 -                                               ",
"                                      z.k.m.    9 F.u.# 3 h.O = , $ $ ; z.g.7 # ;                                               ",
"                                        C.k.j.  p d.p.* 6 f.: , w $ $ , g.f.- ;   `.kX                                          ",
"                                        (.b.a.j.e 8 g.9 6 f.: $ $ @ * i.: 1 - u.p.c.                                            ",
"                                        (.G.g.a.< 6 0 d.i.c., % @ & = : @ @ u.+ 7 V.                                            ",
"                                          A.H.A.7 + 8 9 i.f.: % @ & & & @ 1 O 1 k.mX                                            ",
"                                            d.F.f.7 + : 7 : * * & & @ @ % # O u.B.                                              ",
"                                              8 8 4 2 2 o . . . . . = = ; < u.z.                                                ",
"                                              ^.5 l x d a a s o a a l o 5 8 v.                %X#X7X                            ",
"                                            r.B m W I o.} A x a x I I k j v Q             gX:XoX$X7X                            ",
"                                          >.k K 1.4.#.4.O.J ( ( x a L o.P j a Q             :XaX7X:X                            ",
"                                        B a h ] I.W.Q.=.Z ( @.| [ J z c Z c c v Q           $X>XoX$X                            ",
"                                      9.j C Z J H ` 4.O.| @.| ) O.[ J g f h U D n r.        oX:XoX$X                            ",
"                                    9.j U ( | @.5.+.) _ @.@.X.P { [ m c S h g c b N y.      %XhXtX:X                            ",
"                                    v D _ A @.=.T.*.) ` S ( [ 3.>.K G ( | A V h V b N       :XpXyX$X                            ",
"                                  N n o.X.} &.U.@.( @.%.A f m +.K G X.X.X._ I F V f v       tXiXyX$X                            ",
"                                  b K 4.-.-.4.%.@.-.| %.| A d z D 3.#.X.S U ;.L V V f N     &X*X*X&X                            ",
"                                T I ' ) [ 3.#.*.L.L.| @.@.} A d z ] O.X._ U F k F ;.V k   6XuXaXyX&X                            ",
"                                D 3.6.5.) ! ].~.T.~.L.K.%.X.O.O.m a G  .' K j F I 8.i -XoX&XfXyX*X*X                            ",
"                              >.' $.Q.P.8.1X4X1X'.~.T.=.#.4.W.4.#.n a f I G H <.Q +XoXoXoX*XyX#X#X                              ",
"                              T O.6.E.9.1X>X8X9X1X/.K.&.4.!.W.6.=.1.W x a b <.7.;.X X v q ;X0X                                  ",
"                              ;.7.5.5.w.$X4XdXdX8Xy *.K.T.~.U.X.[ ] ] ' d a I 7.,.b k F k t.                                    ",
"                              L #.7.P.2X#XsXdXgXtXr +.T.!.T.=.} X.] ` I L b d ` <.L D D f 9.                                    ",
"                            r.G ` %.[.1X$XsXdXsXyXr J =.K.Y.U.O.| O.I ` ' P c z ' I D k k B                                     ",
"                            >.c { 6.R.2X%X*X8XuX+Xt 1.) ( =.&.&.O.Z ] $._ K ..H C I b v V D                                     ",
"                            T b #.6.U.].1X%X$X+Xi ^ |.5.m c | | Z W 4.$. .S I O.' z B ;.F k                                     ",
"                            N W %.&.U.W.].0.i y q.].{.{.I.m z m ) I.Y.=.Y S U o.P f k T F k                                     ",
"                            b x K X.=.U.=.*.E.|.[.[.{.W.T.6.) b +.Y.=.%.} Y A I d n J j D k                                     ",
"                          t.H P c C } $.1.E..X.XW.:.Q.W.6.6.O.' G ` O.X.} X...c a o.,.L k k                                     ",
"                          r.I o. .] ( ) 2..X.X.XW.O.Y.W.7.:.1.[.:.d C Y X.O.U d D Y o.' k k                                     ",
"                          T ' o.O.*.X.X.$.|..X.X}.}.W.U.o.W R.}.E.{ a c A U c G Y Y <.;.T k                                     ",
"                          L ' ..4.{ } T.6.7.}..X}.~.T.4.W 2.{.{.W.4.K a f c G } ..Y o.I D k                                     ",
"                          L ' 3.>.J *.L.~.$.1.|..X!.E.! ! !.!.Y.U.&.@.Z s d H I  ...I D F k                                     ",
"                          L ;.2.n +.=.K.K.T.2.! /.kX;X;X).|.T.6.U.=.O.G f d a U X._ f G D j Q                                   ",
"                          L G n ) ,.*.( _ Y.XX'.;X5X,X5XpX2XE.=.6.&._ d ' o.m c Y C z I D a                                     ",
"                          L a b ] #.[ g ) T. XqXyX&X5X0X5X6X_.$.%. .g m ,.<.o.Q N j D I g j                                     ",
"                            g a b :.1.+.*.W.'.6X#X9XqX9X9X$X-X{  .U x o.,.>.w.9X7X;XN L f v                                     ",
"                            k b x z :.R.T.W.cX6X@XqXqX6X9X%X-X! A Z o.o.,.w.:X*X:XoXt D j 9.                                    ",
"                            9.8.! N L 3.Y.I.jX8X@X5X8X8X4X%XOXM ( ` o.o.r.-X#XoXuX$Xu k M 0XNXNX                                ",
"                          ZXcX8.0.t.t.;._ #.jXiX@X:X%X8X4X$X4XX ( ' ` O.t.oX=X:XhX:Xr v 8.zXfXBX                                ",
"                        VXCXBX^ y 2.].t.A [ ;X&X%X4X@X4X%X%X5Xt C _ o.<.2.-X*X$X7X+Xr B e.MXfXxX                                ",
"                          CXqX^.y ~ q.q.3.5.2X#X6X4XOX@X6X8X*Xt z c o.,.O.t =X@X6Xe 5 8.<X  0X,X                                ",
"                        nXzXeX/.^ / ^.^.0.I.jX6X8XsX9X8X8XaX&Xt ) d W :.[ [ X r p s.+.0.kXBXpXuX                                ",
"                          NXxX'.P.2./ ^ S.E.'.5X8XgXgXhXgXgXiX8.` [ E ~ +.J.-.J.^ D.^.).mXzXpXpX                                ",
"                          NXnX  }.].2.S.~ F.jX#X7XdXgXgXgXfX;X8.+.*.W ~ ~ A.J.L.2.r.^.3XeXkXzXBX                                ",
"                          nXBXvX X`././.~ d.2X*X5XhXsXfXgXfX,X8.*.J.J.H.2.S.J.2.]. X).m.eXxXBXBX                                ",
"                          bX   XmXeXlXN.x.N.y -X%X&X&XyX6XuX,X0.+.+.^ J.J.^.~ ).vXkXwXzXxXVX                                    ",
"                                  `.lXqXeXeX                  vX X  `.  XX  2XxXVXxX  nXnX                                      ",
"                                                                bX X`.`.Z.rXrX                                                  ",
"                                                                                                                                ",
"                                                                                                                                "
};
