/* XPM */
static char *_aef4070f88048f99941daec38c6f180hBLfGg7n29Z4iEWQ[] = {
/* columns rows colors chars-per-pixel */
"64 64 112 2 ",
"   c #052337",
".  c #05253A",
"X  c #05283E",
"o  c #062C43",
"O  c #052F49",
"+  c #05314C",
"@  c #08334E",
"#  c #063553",
"$  c #083552",
"%  c #063857",
"&  c #093857",
"*  c #063A5A",
"=  c #093A5A",
"-  c #063D60",
";  c #0A3F61",
":  c #054165",
">  c #0A4164",
",  c #06476E",
"<  c #09456B",
"1  c #06486F",
"2  c #09486E",
"3  c #054C75",
"4  c #0A4B74",
"5  c #074F7A",
"6  c #0B4F7A",
"7  c #06527E",
"8  c #0B507C",
"9  c #065482",
"0  c #0B5684",
"q  c #0D5987",
"w  c #0C5788",
"e  c #055A8B",
"r  c #0B5A8C",
"t  c #065F96",
"y  c #0B5D91",
"u  c #066097",
"i  c #0C6296",
"p  c #06619A",
"a  c #0B659C",
"s  c #0A689E",
"d  c #10669F",
"f  c #106A9F",
"g  c #0667A3",
"h  c #0B67A1",
"j  c #076AA6",
"k  c #0B6AA4",
"l  c #076AA8",
"z  c #0D6DAA",
"x  c #0E6DAA",
"c  c #0E6EAB",
"v  c #0A6EAD",
"b  c #0E6EAC",
"n  c #1066A1",
"m  c #106BA3",
"M  c #106DA5",
"N  c #106DAA",
"B  c #0C70AB",
"V  c #0E70AF",
"C  c #0F72AE",
"Z  c #0F71B1",
"A  c #0F75B0",
"S  c #0F75B2",
"D  c #0E74B3",
"F  c #0B76BA",
"G  c #0B7BBA",
"H  c #0B7BBB",
"J  c #0F78BB",
"K  c #0B7CBB",
"L  c #0979BC",
"P  c #0B7CBC",
"I  c #0B7DBD",
"U  c #0B7EBF",
"Y  c #0D7FBF",
"T  c #1173B3",
"R  c #1177B4",
"E  c #1078B4",
"W  c #1178B5",
"Q  c #1179B7",
"!  c #117AB8",
"~  c #117ABA",
"^  c #0679C0",
"/  c #0B7BC0",
"(  c #0D7BC2",
")  c #0C7EC1",
"_  c #0F7CC3",
"`  c #0F7DC4",
"'  c #127CC1",
"]  c #107FC1",
"[  c #0C81C4",
"{  c #0D83C6",
"}  c #0F84C7",
"|  c #0D82C8",
" . c #0E84C8",
".. c #0E85C9",
"X. c #0F88CE",
"o. c #1180C0",
"O. c #1180C2",
"+. c #1182C3",
"@. c #1282C4",
"#. c #1283C6",
"$. c #1186CB",
"%. c #1286CA",
"&. c #1386CB",
"*. c #118BD3",
"=. c #118DD7",
"-. c #128FD8",
";. c #1390D9",
":. c #1390DA",
">. c #1291DA",
",. c #1490D9",
"<. c #1292DC",
"1. c #1292DD",
/* pixels */
". . X . . .   . . . . . . . . . . . . . . . . . .   . . .     .                 .       . . . .   . .   . . . . . . . . .   . . ",
". . . .   o $ % O o o o o o . o o o o o O o o O O o . o % & = = * % * % * * * * * * > % o X + + + + + + + + o o o o o O # # o . ",
". . X .   $ w y 2 = = = = $ o o $ ; ; ; = ; = ; = @ o = i C x h s a s s s p p s s k C i & o : 3 3 3 3 3 5 1 > = = = = < e 9 #   ",
". .   o $ 2 d d 4 ; ; < < = o o ; ; ; ; ; ; ; ; ; & o ; C *.&.@.[ I I I Y I I I I ..<.E > + 3 e e e e e 9 5 < > > > > 8 j s * . ",
"X .   $ w i w 4 < > > > ; = o o = ; ; < ; ; ; < ; ; X - n ' #.@.I I I I I I I I K } :.J - O 3 e e e e 9 3 < > > > > > 6 x a % . ",
". o $ 2 i i 4 ; ; > > > > = o O ; ; ; ; < < ; ; ; = o = a ( @.` Y I I K I I I I K { :.E > @ 9 y e 7 7 5 < > > > > > = 6 j p %   ",
"  $ w d w 4 < ; > > > > < = o o ; ; ; ; ; ; ; < ; = o = t ^ ' ' Y K K I I K I K H [ -.Q = % i k 7 2 < < > > > > > > > 6 l p * . ",
". % r a 4 ; ; ; ; > ; ; ; = o o ; ; < < ; ; ; ; ; ; o & t ^ ' ' Y K K I K K K K K } :.Q = % r a 4 = > > = > > > > > 4 r v p % . ",
". O ; 4 ; ; ; ; > ; ; ; ; = o o = ; ; ; ; ; ; ; ; = o % a ` ` ` I K K K K H H H H [ ,.E * o < 4 ; ; ; ; ; ; ; ; = 4 y T F t * . ",
". @ 2 6 0 6 6 6 8 8 6 6 0 < O O ; 9 0 6 6 0 6 6 6 < O % g ` &.` #.} [ } { { } { { X.:.E > o > 8 0 6 6 6 6 6 6 6 8 r Z ` ` a % . ",
". # r x x x x x N N N N N r $ $ r N N x N x x N x r # - C -.:.:.-.-.-.-.:.-.-.=.:.:.<.S * % e x N N x x N x x x x C ~ ' ` t * . ",
". $ 0 h n d d d n d a a h 0 $ $ 0 n h h d d t n a 9 + $ y T T T R Q Q S S Q R J E E S y $ @ 0 s h h d n t h n h a d a h a 0 $ . ",
". o $ & = = - = * * * - & $ o o $ = * * * & * = = @ o o # - - - = > - ; - ; - ; > * * % o X # % = * & * = = * * * = * * * $ o . ",
". o o o o o o o # * # * & # O o o o o o o o o O $ * % % % # % % * + X X $ $ X X + + + + + + + + O @ # * * $ o     . o o o o o . ",
". o @ & ; = ; ; w a t t t w ; * ; = = ; & & = < r h t p p p p d p 9 O $ 9 w $ o : 3 3 3 3 3 3 3 3 9 p h h 0 $     o $ = = $ o   ",
". o - ; ; ; ; 6 t g a g T x 9 ; ; ; ; ; ; ; ; 6 t b l l l l n n j e * - y y % O , 9 9 9 9 9 9 9 9 r h Z Z r &     o = < ; = o   ",
". o = ; ; < ; 4 4 ; ; ; Z Z 4 ; ; ; ; ; 4 ; ; 0 0 0 4 0 ; 0 0 6 6 4 > > 4 < + + = 2 2 2 2 < 2 2 < 4 6 9 0 ; $     o ; ; ; ; O . ",
". o - ; ; ; ; ; ; = O = n b 0 ; ; ; ; ; ; ; ; ; ; 4 ; > ; ; > 4 ; > > > > & o o = > > > > > > > ; ; ; ; ; - = $ o o ; ; ; ; o . ",
". o = ; ; ; ; ; ; ; X = h v 9 ; ; ; ; ; 4 ; ; ; ; ; ; ; ; ; ; ; > > > > > & o o = > > > > > > > ; ; ; ; ; < t 0 $ o & ; ; = o . ",
". O ; 0 0 6 0 6 ; = o = n v 4 ; ; ; ; 4 ; ; ; ; ; ; ; ; ; ; ; ; > > > > > = o o = > > > > > > > < < ; ; ; 9 v h & O & ; ; - O . ",
"  # r v n l x t 0 $ X = n N 0 ; ; ; ; ; ; ; ; ; ; ; ; ; ; ; ; ; > > > > > = o o = < > > > > > > ; < ; ; ; 0 C h ; o ; ; ; ; o . ",
"  # 9 p a p a r ; @ X $ w r ; & = = ; = ; ; ; ; = = ; ; ; = ; = = = = = = $ o X $ = = = = = = = = = = # = < r 0 $ o ; ; ; ; o . ",
". o + * * * - # O X   o @ $ o o o o o o o O @ O o o o o @ o o o o o o O o o . . o o o o o o o o o o o o o O $ # X o = ; ; & o . ",
". o & # o o + * = = = = = = = = = & o .   . . . . . . . . . . . . . . . . o $ & + + $ $ o X # = = = = = = % % @ o o ; ; ; - o X ",
"  - t d % @ 0 n n n n d n n n d n w $ . . . .     . . . . . . . . . . .   & q y < < r 0 $ $ q m x h h s p g s 9 $ o - ; ; - o X ",
"  ; Q J > $ r N C T ' ~ T T ' ' T y ; o o @ o @ o o o o o o X X o o o o o = y d 6 6 N a = = m &.+.) / ^ ) [ ^ g = o - ; 4 - O . ",
". ; Q ~ > o > 8 8 r T T q q T T y 4 ; & ; ; ; ; ; ; ; = = & o o & = = = & > 4 4 < 6 N a = = d @.} Y ) H ) ) I s = O ; 9 e ; O . ",
". ; Q Q > o & > ; 4 d i 4 < d d 4 ; ; ; ; ; ; ; ; ; ; ; ; = o o = > < > > > > > > 6 N h % = n +.I K I K K I I h # + 9 e e 3 + . ",
"  ; ~ ~ > o = > ; > 6 4 < > 6 4 ; ; ; ; ; ; ; ; ; ; ; ; ; ; o o = > > > > > > > ; 8 N a & = k +.Y I K I P I ) a * + 3 e e 3 #   ",
". ; ~ ~ > X = > > ; ; ; < ; ; ; ; ; ; ; ; ; ; ; ; ; ; ; ; ; o o = > > > > > > ; > 8 N i % = f #.Y K I H P I ) a * + 3 e e 6 +   ",
". ; ~ ~ > o & > < ; > ; ; ; < ; ; ; ; ; 0 ; ; ; ; ; ; ; ; ; o o = > > > > > > > = 8 x a & = d ' I I H I P / / g * O 5 e e 5 #   ",
"  = d i = X @ = = = ; = = = = = ; ; ; ; = = ; = ; ; ; ; ; = o @ < 4 > > > > > ; > 6 B a % = f +.[ K H H P P / t * O - 3 5 - O   ",
". o = & o . o o o o o o o o o o o o o o o X o o o o o o o X . & i d 6 ; ; > > ; ; 6 N a = = a #.Y I K K K Y I s * . + + + + X   ",
". . X o o o o o o o o o o o % % @ + . X & = + o o o + # # o X - x Q y 4 < ; ; < 4 y x a # = x &.&.{ } } [ } } k * X # * % @ o . ",
". o # = = = = = = = = = * < e y 7 > o = d f 2 & & - 1 3 3 : o * k @.S i 4 > ; 4 y Z F t # * Z :.:.=.=.=.:.:.<.C > @ 9 k h 9 # . ",
". o = > < > 2 > < > > > > 8 x J j 7 @ > ~ +.q ; > 1 7 e e 3 + % r S +.Z 0 > ; 8 x ( ( t * # y E Q Q E Q E ! ! i % % g [ [ g %   ",
". + = > > > > > > > > > > 8 B ~ K y $ > Q +.q ; ; < 7 e e 3 + O < r J S r 4 > 8 m ( F t # o % - = > > ; ; > > & o * t L L u * . ",
". o = < > > < = > > > > > 4 i C x e @ > Q +.q ; ; 1 7 e e 3 # X % 4 a x h e < 8 N ( F t * X + # o o X o X X X o o * e g l e # . ",
". o = > > > < > > > > > > > 4 8 8 < o > Q +.8 ; ; 2 7 e e 3 + o & < 4 q C h 4 8 k ( P t # # 0 r < % & & = = & & = ; 4 5 5 : + . ",
". o $ = = = = = = = = = = = = % % @ X > ~ +.q ; ; 2 7 e 9 < + o & > > 4 a n 4 4 x / F t % * r h 4 > > > > > > > ; ; : > * % o . ",
". . o o X o o O o o o o o o o o o X   > ~ +.q ; ; < 9 9 4 ; O X & > > > 4 4 > 6 M ' F t % O - 4 ; ; ; ; ; ; ; ; ; ; ; ; ; = O . ",
". o $ * * $ o . + + + + + + + o o X   > Q +.0 ; > < 5 5 < & o + < 8 8 8 6 7 6 r C ( P p % O < 6 0 6 0 6 9 6 9 6 6 9 6 6 0 ; O . ",
". $ 0 h h 9 + O : 7 3 3 3 , = = = $ X > ~ +.6 > ; > < < < = o & y S C B B B x Z F ( P t % # w b x x x x x x x x x x x N N r $ . ",
". = a { { s % + 1 9 9 9 9 7 < > > = o > R +.q ; > > < < > & X # e k k g h h h a a t t 9 O $ 0 h d d d t d d h h h h n a h 0 $ . ",
"  * s { { s * o - 2 2 < 2 < > > > = X > R @.0 ; ; < 8 7 < = O o # * * * * * = % * % % $ o o $ % & - & * * * * * * * * * * $ o   ",
"  % s I I p * O = < > > > > > > > = X > ~ +.q ; > < 4 8 < = o . o o o o o o o o o O $ = * # $ O O O + O O O O O @ O O O + O o . ",
"  * s I I p * + < 6 < > > > > > > = o > R +.8 ; ; > < 2 > = o o @ * = = = & = & % < r h g i 9 3 3 3 3 3 3 3 1 3 3 3 3 3 3 ; O   ",
"  * s I [ s % + 4 r < ; > > > > > = X > Q +.q ; > > > > > = o o $ * > > > < > > ; 6 h D F l e 9 9 9 e e e e e e 9 9 9 w t 9 $   ",
"  * s I [ s * O 3 7 2 > > > > < > = o > Q +.0 = > > > > > = o X X @ > > > > > > ; 2 e u i e 3 2 ; 6 9 e w e e 9 4 < < 6 x i = . ",
"  * s I I s * O , 7 2 > > > > = > = X ; ~ ' q > > > > > > = o . X X & > < > > > > 1 8 5 8 8 2 ; ; , 3 9 9 9 9 5 < > 4 w i w # . ",
"  * s I I s * X : 1 < > > > > > > = o ; Q +.0 = > > > > > = o . . o = < > > > > > > 1 2 1 1 > > ; < < , 4 2 4 ; ; 4 i i 2 $ o . ",
"  % s ` I s * O % - > = > > > > > & o ; ~ @.q ; > > > > > ; o . . o = > > > > > > > > > > ; > ; ; ; ; ; ; ; ; < 4 w a w $   . . ",
"  * s Y U s * X = > > > > > > > < = o ; ~ @.w ; > > > < > = o . . o = < < > > > > > > > ; > > < < ; ; ; ; ; ; 6 a i , $ o   . . ",
"  * s I U s * X = > > > > > > > > = o & n h 4 & & = = = = & o   . X # = = = = = & = = = = = = = = ; & & = - = ; y w @     . . . ",
"  * s Y U s % + = > > > > > > > ; = o o & & O o o o o o o o X . . . X o o o O X O X X o O X X O o o o o o o o O $ $ . .   . . X ",
". # 7 B K s * X = 2 > > > > > > ; = o o @ % * # o . . . . . . o $ & @ o o X O O X O @ @ + + @ @ $ O o o & ; * = % = ; - - # o . ",
". X # 1 j s * O 2 8 1 = > > > > ; * o $ 0 h h 9 $ . . . . . . $ q e < = = = = = = = 2 8 3 3 3 3 3 : O & i S k s a h C Q B e $ . ",
". X @ 3 B s * + 3 9 3 1 > > > 1 , ; o * a ( Z r * o o o o o o ; r s 4 > > > > > > 2 7 7 7 7 e e e 3 + ; E <.} I I ..=.:.X.h *   ",
". % 9 B K s * O 3 e 7 8 < > = 2 5 , O * n Z r 4 ; = = = = = = ; 2 4 2 > > > > > > > 2 2 1 3 9 e e 3 + > K :...I I ) ..| [ s * . ",
"  * u K Y p * + 3 e e 9 4 < > 2 6 , O % a N 6 ; > ; < ; < ; ; < > > > > > > > > > > > > > 2 7 e e 3 + - ! :.} I I I I I [ s *   ",
"  # 7 j I s * + 3 e e e 8 5 1 : < ; o & f N 8 ; > < ; < < ; < ; > > > > > > > < < > > ; ; 3 7 e e 3 O ; Q <...I I I I [ [ p *   ",
". o : 7 p 9 % o : 3 3 3 8 , > & = $ o $ 0 r < = = = = = = = = = = = = = = = = = = = = = = * 3 3 3 : O & i S h s s s p s s 9 # . ",
". X + # % # X X + + + + @ + O X O o . o $ = @ o o o o o o o O o o O o o o o o O O X O X O O O + + O X X & - * * * * & * * # o . ",
". . . .   . X . . . .   . .   X . . . . .   . . . . . . . . . . . . X . . . . . . . . . .   . . . . . X     .             . . . "
};
