/* XPM */
static char *_95d05df1ec04a7dc6cab10abcdaaacc0tBmhnpOy9iuguZt[] = {
/* columns rows colors chars-per-pixel */
"64 64 256 2 ",
"   c #180A0B",
".  c #1C0414",
"X  c #120608",
"o  c #270816",
"O  c #360818",
"+  c #271516",
"@  c #311012",
"#  c #392517",
"$  c #280B27",
"%  c #370A25",
"&  c #370934",
"*  c #361839",
"=  c #2E1330",
"-  c #38233A",
";  c #3A282A",
":  c #1E0B24",
">  c #4B0A1C",
",  c #480829",
"<  c #560627",
"1  c #471928",
"2  c #580638",
"3  c #511635",
"4  c #680836",
"5  c #730737",
"6  c #6D122F",
"7  c #432937",
"8  c #512D31",
"9  c #6F2F32",
"0  c #5E2215",
"q  c #724D35",
"w  c #150B48",
"e  c #1C0D53",
"r  c #1A0D58",
"t  c #1E105F",
"y  c #29194B",
"u  c #3A1846",
"i  c #240F58",
"p  c #2D1951",
"a  c #2B125B",
"s  c #271259",
"d  c #341952",
"f  c #35195A",
"g  c #3A195C",
"h  c #35155B",
"j  c #3D0544",
"k  c #3A214F",
"l  c #1E0E62",
"z  c #1F1064",
"x  c #230F65",
"c  c #241263",
"v  c #24116A",
"b  c #2B136C",
"n  c #2B1566",
"m  c #3C1663",
"M  c #3E1A63",
"N  c #34156C",
"B  c #3B166B",
"V  c #371766",
"C  c #2C1473",
"Z  c #2E1777",
"A  c #3C1974",
"S  c #351A7B",
"D  c #3B1B7D",
"F  c #351874",
"G  c #3B2379",
"H  c #382567",
"J  c #580447",
"K  c #451A47",
"L  c #590759",
"P  c #46185A",
"I  c #51134D",
"U  c #680847",
"Y  c #790747",
"T  c #66174A",
"R  c #771848",
"E  c #66085A",
"W  c #691657",
"Q  c #761A55",
"!  c #7A0D57",
"~  c #462B48",
"^  c #563749",
"/  c #4A2954",
"(  c #542859",
")  c #593755",
"_  c #4F2E46",
"`  c #6F2F50",
"'  c #421765",
"]  c #421B65",
"[  c #451A6A",
"{  c #4A1B6D",
"}  c #471667",
"|  c #531968",
" . c #431A73",
".. c #4C1C73",
"X. c #441B7B",
"o. c #4B1C7B",
"O. c #491579",
"+. c #521D75",
"@. c #54157C",
"#. c #541D7C",
"$. c #5B1C7B",
"%. c #5A1776",
"&. c #550970",
"*. c #660867",
"=. c #671969",
"-. c #690A76",
";. c #760E76",
":. c #641877",
">. c #77126D",
",. c #572765",
"<. c #5C356B",
"1. c #42267B",
"2. c #5B217C",
"3. c #582178",
"4. c #4D2B6A",
"5. c #682967",
"6. c #782969",
"7. c #683B66",
"8. c #672678",
"9. c #752A76",
"0. c #673779",
"q. c #773A78",
"w. c #7C3668",
"e. c #5A4251",
"r. c #674659",
"t. c #734A50",
"y. c #694569",
"u. c #744967",
"i. c #774777",
"p. c #715075",
"a. c #59426E",
"s. c #820F37",
"d. c #873138",
"f. c #8D4D33",
"g. c #97573F",
"h. c #851847",
"j. c #860757",
"k. c #871A57",
"l. c #8C0E53",
"z. c #852848",
"x. c #862658",
"c. c #923253",
"v. c #8B1470",
"b. c #872868",
"n. c #8C3070",
"m. c #AA3274",
"M. c #A31A71",
"N. c #924F51",
"B. c #AA544B",
"V. c #8A6657",
"C. c #B26A50",
"Z. c #8B4F74",
"A. c #AB4F6E",
"S. c #936671",
"D. c #B5716E",
"F. c #3E1D81",
"G. c #3D2388",
"H. c #451B81",
"J. c #4C1B83",
"K. c #4B1C88",
"L. c #551C81",
"P. c #581B85",
"I. c #561A8F",
"U. c #671686",
"Y. c #771586",
"T. c #771894",
"R. c #6F0F89",
"E. c #452384",
"W. c #4B2586",
"Q. c #57258A",
"!. c #592794",
"~. c #5A3496",
"^. c #57318D",
"/. c #662685",
"(. c #742887",
"). c #6A3785",
"_. c #773689",
"`. c #662A98",
"'. c #653899",
"]. c #763798",
"[. c #752793",
"{. c #682EA4",
"}. c #6936A6",
"|. c #7738A8",
" X c #793CB5",
".X c #7728A7",
"XX c #6D1BA6",
"oX c #794786",
"OX c #794997",
"+X c #6C4796",
"@X c #7446A5",
"#X c #7848B2",
"$X c #7E6494",
"%X c #7D60D1",
"&X c #783FC2",
"*X c #881585",
"=X c #861697",
"-X c #8E108F",
";X c #AA1092",
":X c #89328F",
">X c #AF2F8B",
",X c #9016A6",
"<X c #AF17AE",
"1X c #8F31B1",
"2X c #AE2AAF",
"3X c #CD32B0",
"4X c #CA24A0",
"5X c #864A87",
"6X c #895588",
"7X c #8F5191",
"8X c #996597",
"9X c #92698D",
"0X c #A77293",
"qX c #8756A9",
"wX c #8944B8",
"eX c #9052B1",
"rX c #B056B6",
"tX c #9765B6",
"yX c #936DAF",
"uX c #A674A7",
"iX c #A76BAF",
"pX c #AF5086",
"aX c #D04BB3",
"sX c #CF52A6",
"dX c #992EC5",
"fX c #A82AC8",
"gX c #DE2EC5",
"hX c #9A57C7",
"jX c #8F4CC8",
"kX c #A659C9",
"lX c #AF51D4",
"zX c #996FCF",
"xX c #A665C8",
"cX c #B273D1",
"vX c #9956ED",
"bX c #B46BEA",
"nX c #AA59EF",
"mX c #C446DD",
"MX c #E551C8",
"NX c #C371D8",
"BX c #CC53EB",
"VX c #D078F1",
"CX c #E76ACE",
"ZX c #AA8AA5",
"AX c #C98E8F",
"SX c #D4A7B6",
"DX c #D7A5A3",
"FX c #A887E5",
"GX c #C597D4",
"HX c #D6B0D2",
"JX c #D28AF2",
"KX c #EB97FF",
"LX c #DFAEE7",
"PX c #F2D2CD",
"IX c #FAE1E4",
"UX c #EFC9A8",
/* pixels */
"y y y y p f f f f f g M M M M M ] ] M M [ M M M m m m m m m m m h m h h h h a h j a a p a a s a a i i i i i i e e e e e w w w w ",
"y y y y d f f V g g g g M M M [ m M ] [ [ M ] m m M M ' m m m h ' h m h h h m a h a a a a a a a a a i i i i e i e e e e e w w w ",
"y y y p p f f f g g g H ] H H [ m ' [ } ] ] ] ] ] m ' g m m ' m h h m h a h h a h h h a a a a n n a a i i i i i i e e e e w w w ",
"y y y p f f g m H g M M [ [ [ [ [ [ [ [ [ [ } [ } } ' ' ' ' ' B ' ' m m B m m m N h h a h a N a a a n a i x x i i i i e r w w w ",
"y y p p f f m m M M ] ] [ [ [ { [ [ [ [ [ [ [ } [ [ [ ' [ ' ' ' ' ' ' B ' m m m h B h h V a N n N b n x n i x a r i l l r r w w ",
"y p p f f V M M M M ] ] [ [ [ 1.[ } { { { {  .{ [ [ }  .}  .} }  .' ' B B m B B B h B N N N N N h b N x N x x n x t l l r r r r ",
"p p p f f g m m M [ ] [ [ { { { { ..{ { ..{ { } ..{ { { } } {  .} } ' ' ' ' m B B B B B V N B N N N b b x x b x x x l l l r r w ",
"p p d f g m M M ] H ] [ 1.[ ....} { ..{ ..{ { { { { { } {  .{ }  .B  .' ' B ' B B B B B B N N A N b N b b b b x x i l l l r r r ",
"y p p f g M ] ] ] ] ] [ [ { { { { 4.......{ ..{ { { ..{ [ ....[ O.{ {  .[  .[ [ A A B A B A N N C C C v F.l F.l v v x x x l l l ",
"p p d f g ] ] ] ] ] [ [ 4.{  .4...........+.....4.{  . ...[ ....} O.O. . . . .A  .[ A ' A B B N N C C l l F.l l v b v x x x x r ",
"y d d f g ] ] [ [ ] [ [ { 4.................+...o. .....4.O.....{ { }  . .[  .[ O.A  .A A A A A N A v F.v F.l F.b b v x x l l l ",
"p p f k g ] ] [ ] [ { { ..........#.....+.....+.........o...o...O.O...O. . . . .A  .A  .A A A A A F l F.F.l F.l b b b v x x l l ",
"p p d g M ] ] [ [ [ { ......+.#.#.+.#.#.+.#...3.@...#.....o.......o... .X. . .1. .O.X.A A A A A F F F F F.F.l F.v F.F.v v z z z ",
"d d d g P ] ] { { { ..4...#...#.+.3.#.+.#.#.#.#.+.o...#.#...#.+.@.o.o.o.o.o. .O.O.D X.A D X.A D F D D D l F.F.F.F.v v v v v z z ",
"d d g P P ] { { { ........+.#.#.#.#.#.#.#.#.+.#.#.@.#.#.+.@.@.#.o.o...o...o.X.o.H.X.F.X.X.D D A A S F D F.F.F.F.v F.v v v v v z ",
"d h d d P ] ] [ ..{ ....#.3.+.#.#.#.#.#.3.#.#.#.#.+.o.#.#.o.#.#.o.#.o.o.1.o. .1.X.X.O.D D  .O.S D D D S F.l F.F.F.v F.C v v v z ",
"u d d P P ] [ [ { ..| +.+.#.#.#.$.#.#.L.$.#.L.#.#.#.L.#.#.#.#.#...@...o.X.o.O.H.J.H.H.H.F.H.H.F.F.D A F.F.C F.F.F.C F.F.F.F.l l ",
"d d d d M [ { [ { ..4.o.+.+.#.+.#.#.#.#.L.#.Q.#.#.#.#.#.L.#.#.#.o.o.o.o.o.o.H.O.J.J.H.J.H.H.H.H.D F.S F.F.C F.C F.C F.z l l l l ",
"d d d g P { [ [ { | ..+.+.#.#.#.#.$.#.#.#.#.#.#.#.#.#.#.#.#.#.#.#.#.o.o.J.o.J.O.J.J.H.H.H.H.H.H.F.F.F.A F.F.F.C C F.z F.Z v z l ",
"d d d P g } { [ { { ..4.#.+.+.$.L.L.Q.#.Q.L.$.#.L.#.L.#.#.L.#.L.o.3.L.L.o.J.@.J.J.J.J.H.H.H.F.H.A F.F.F.C F.F.F.F.C F.v Z C C v ",
"d d u g ] [ [ [ { { 3...+.#.+.#.#.#.#.L.#.#.Q.$.#.#.L.L.#.3.#.#.L.Q.#.#.P.J.J.J.J.J.J.H.H.H.H.H.F.F.F.F.F F.C F.Z G Z Z Z Z Z n ",
"d d d g P [ [ [ { ..{ 3.+.+.$.#.Q.$.Q.2.$.L.L.#.$.#.#.#.#.@.Q.L.L.L.L.L.J.J.J.J.J.H.J.J.H.H.H.H.F.H.F.F.F.F.F.F.Z Z Z Z Z v H t ",
"d d d g / [ { ] { { ..+.+.#.#.+.$.#.$.L.$.Q.Q.$.Q.#.L.#.L.Q.L.#.L.L.J.L.J.J.J.I.J.J.H.J.E.H.H.H.F.F.H.F.F.F.F.F.G Z Z Z Z Z t t ",
"u d d g M { [ [ { ..| +.+.+.#.+.#.Q.#.Q.#.L.2.#.#.L.2.#.#.#.2.L.@.L.L.J.I.J.J.J.J.J.J.H.H.K.H.F.F.F.F.F C F.F.C Z G G G G H n y ",
"* u u d P P } } O.O...} ..$.$.@.U.$.%.$.Q.2.2.L.L.@.#.Q.P.L.P.P.P.L.J.J.L.L.H.H.o.o.o.K.K.K.K.K.E.F.G.W.E.D G E.H G S G.G.G H i ",
"u y u P h P } } &.3.3.#.#.2.2.$.Q.Q.$.3.2.2.2.3.Q.+.@.#.L.#.#.P.L.@.@.@.J.J.J.O.Q.K.L.K.W.K.K.W.G.F.F.E.E.E.G G G G G Z G.G 1.H ",
"u u u P P P P | P } | | +.$.$.$.P.Q.Q.2.3.3.3.3.2.#.#.#.#.@.#.Q.L.L.@.J.J.J.J.H.J.L.K.K.L.K.W.K.W.H.1.E.E.E.1.1.G G G G.E.1.H p ",
"* u K d P P } } ( ( | } | %.$.+.@.L.2.2.8.2.2.%.2.8.3.2.$.$.#.:.P.L.#.L.P.P.J.J.O.#.W.L.W.Q.!.!.~.W.W.W.W.E.1.1.H G G G G G H e ",
"* u u d P P P } i.q.5.3.3.:.3.%.O.+.$.2.8._./.@.2.$.$./.2.$.@.@.P.P.J.J.J.P.J.J.P.Q.I.K.W.^.^.!.~.^.E.E.E.E.W.^.W.W.1.H H H H H ",
"u * j K P P } P i.5.| | %.$.%.%.%.:.:.8.(.].[.-.$.%.%.$.$.%.%.@.@.P.&.&.@.J.J.P.K.!.!.W.K.!.Q.W.~.W.W.W.G.^.^.1.~.~.+X^.<.H H H ",
"* * u K P | | | ( ( } | %.%.,.8.8.9.8.:.(.:X.XT.$.%.@.@.@.@.@.P.P.@.&.J.J.P.P.P.K.!.!.K.Q.!.!.W.^.^.~.~.+X+X+X~.'.#XOX7X<.4.y e ",
"* u u K I | ,.| I I | :.$.%.:.9.q.q.9.8.(.:X,X.X/.$.@.@.@.P.P.U.U.U.P.J.U.P.P.I.K.!.!.Q.~.'.+X~.^.~.~.@X#X#X@X~.~.+XqXOX<./ H H ",
"= = K P J P 5.| P 8.Y.*X(.=.5.:Xn.7.w.6.,XfX1XXX`.%.} %.$.@.P.XXXXT.%.{ I.!.P.P.!.I.I.!.{.@X+X+X!.@X}.#XzXzXOX).}.+X$X@X^.a.k k ",
"* * K I I W 8.| P 8.Y.(.pXZ.Z.n.:Xn.w.>.=XfXdX,X[.@.&.%.$.P.R.R.XX`.8.+.Q.I.I./.I.!.!.!.'.@X+X+X~.#X X&XvXFXjX~.~.$XZX).,.r.e.k ",
"* - 7 I I b.b.U *.:.9.w.SXSXD.A.>X:X5X9.T.dXfXfX,XR.&.&.:.:.U.U.R.[.(.8.P.K.I.`.!.!.!.`.}.@X+X+X~.}.&X&XvXnX%X{.~.ZXHXoXu.t.V.e.",
"= % 3 T T v.v.k.;.;.b.N.IXPXDXA.m.A.7X9.Y.1XfXfX1X=XR.U.U.-.$.@.[._._.)./.P.P.!.!.{.|. X|.@X@X+X^.#XvXvXvXvXdX}.+XSXPXoXS.V.V.t.",
"% & 3 I W j.M.2X2X*Xb.Z.PXUXAXB.c.m.m.6.:.:X2X2X,X,X=XT.Y.-.%.:._._._._._.`.`.!.!.{.|. X#X|.}.~.~.#XvXvXvXzXyX6X$X9XZXa.$Xt.q ` ",
"& & , 3 R ! >XMXrXM.v.Z.DXAXAXD.m.A.>X>.*.(.,X<X=X,X=X=XY.R.U.U.9.:X:X_.5X7X].{.!.`.|. X X}.~.~.}.}.&XjXhXcXuXZ.+Xy.y.H p.e.q u.",
"& 3 3 3 R R k.3X>Xv.v.n.A.Z.pXA.A.pX>X=X;.;.R.,XR.-X=X=XR.R.U.U.9.5X:X5X7X7XOX{.!.`.{. X X|.}.{.'.'.@XqXqXtXyXoXOXy.p.a.p.r.t.r.",
"$ 7 1 3 ` R j.v.E >.*X-XU 6.n.k.b.v.<X2X=X=X=X<X=X=X-XR.R.-.@.%.9.:X:X:X5X6X].`.`.`.{. X&X X|.}.+X+XyXtXqXyXtX@XoXp.p.a.a.t.t.e.",
"@ 0 9 6 2 T W U *.v.>.W W *.-.L v.;X<XfX<X,XXX-XR.R.;.R.-X-XY.:.%.(.q.oX5XOX]. X{.{.~.}.#XwX XwX#XyXPXHXqXzXxX6X6Xi.9X9X^ ^ a.e.",
"8 q q 9 R T T T U Q 6.x.x.x.b.Q *.;XfX<X<X<XR.-XR.Y.;.*X-X,X=X-.&.$.8.:.`. X1XdX{.{.{.~.}.#XwXjXcXHXIXPXcXbXcX8XoX7XuX8X7./ k - ",
"f.g.C.N.z.T T T 4 Q ` n.n.c.b.` >.MXgX3XgX<XR.R.R.-.-.v.-X;X*X-.&.P.&.O.XXdXvXBX X{.{.{.|.@X1XhXZXHXIXHXFXJXcXtXqXcXGXcX$Xa.k k ",
"0 g.C.g.` ` T T T ` z.N.N.x.x.Q n.aXCXCXgX;X-.-.-.*.E *.*X-X*X-.J.P.&.@..XdXBXBXjX|..X#XwXwXjXwXNXLXHXGXJXJXJXzX$XzXcXzX#Xp.k - ",
"0 f.B.N.d.T Q T W Q z.n.c.R k.k.b.4XLXLXaX-X%.*.*.L E >.v.-Xv.;.&.U.P.U.1XlXmXBXlX1X1XeXkXkXjXwXNXLXGXcXVXVXbXjX#XFXFXzXzX$X/ - ",
"f.f.f.f.6 U U x.k.b.x.c.x.R x.b.j.m.HXIXsX;.-.! *.E W b.v.v.;.9.%.:.U.T.dXfXmXBXlX1X2XNXlXkXkXjXrXcXxXkXVXbXvX#XzXFXFXLXHX8X) k ",
"f.9 d.9 6 2 4 x.k.x.h.x.x.x.b.b.j.M.AXSXsXM.-.! L W 6.n.v.;.*.:.:.[.T.=XdXmXmXBXBX2XlXVXNXrXkXkXhXxXhXbXbXlXzX#X%XFXFXLXGXS._ ~ ",
"0 0 9 9 4 U Y h.k.x.s.h.z.c.c.k.>.c.N.B.4X;X;.L E 5.n.m.n.*.*.%.U.R.XXXXdXlXmXBXbXlXVXKXVXlXkXeXhXxXhXcXxXeXyX+X%XFXLXHXZXr.^ e.",
"> 1 1 1 8 6 6 h.A.c.d.B.B.d.c.Y R x.c.m.m.>Xm.J *.T ` V.q.-.&.| :.%.`..X1X1XlXlX_.cXKXJXNXlXeXwXjXlXxXxXeXqXqXeXvXFX%XZX$Xe.e.; ",
"0 > O > 6 4 4 k.k.d.B.C.B.d.Y ! l.k.x.k.>X>X;Xv.*.W N.Z.n.&.&.P 8.:.U./.(.1X1X1X].cXKXNXlXwXeXrXNXlXkXtXtXqXqXqXzXFXZX9Xp.t.r.; ",
"8 O > 1 4 5 s.m.k.s.C.C.B.z.5 v.M.>Xc.h.>XgXgXgX-.L W ` W L -.9.b.6.9.:.(._.:Xq.).OXxXhXhXwXlXNXKXbXeXeXtXiXqX5XtXyX$Xp.t.r.r.~ ",
"1 @ 1 6 5 s.s.>Xk.5 d.B.g.c.j.j.l.A.m.5 m.MXgX4X*X*.J J J E :XZ.w.w.9.:.8._.n.i.0.8.].:XeXlXNXJXKXNXrXtXyXiX8X5X7XoXa.p.u.e.e.e.",
"@ o 9 4 R k.l.m.k.5 0 d.f.s.l.j.Y m.z.d.A.3X<X;X*X*.L | =.n.:Xn.6.w.Z.q.)._.5X6XoXy.).Q.|.lXcXNXJXcXiXiXuX8X8X9X5Xu.y.u.u.t.7 - ",
"@ > 9 9 d.m.R 5 5 5 6 z.h.5 j.! ! z.d.A.sX>X;X;Xv.L L %.=.n.pXb.5.w.0X0XoX/._.5XZ.oX)./..XcXrXrXiXuXiXiXuXuX8X7Xi.i.p.r.r.p.e.; ",
"# 8 9 6 6 d.< < 6 6 h.h.5 4 Y U U 4 s.M.M.M.v.v.! J L L L n.pXA.5.u.DXUX6X,.q.i.u.i.oX'.].xXrXrXiXiX0XuX0X0X8X7Xq.i.p.) ) u.^ k ",
"X 0 6 6 6 < < 3 6 6 l.Y Y j.U 2 4 U j.l.l.M.>X:Xk.E L } J x.A.n.` t.UXIXS.P 0.i.Z.i.oX).`.wX7XrXuX0X0X0XuXuX8XZ.8Xi.i.y.) r.7 7 ",
"# > 1 1 8 < > < < s.s.s.6 < < 5 2 2 J U U U x.A.N.z.U J J W u.A.t.N.AXAX6XW %./.Z.i.0.).).].qXqX0XS.D.0X0X7X6X8X9XpX8X) 7.r.^ # ",
"@ O @ > > > > < 0 6 s.s.< < 2 4 2 J 2 J U 2 3 c.d.z.W W L L ` 7.t.` u.N.` 5.q.).<.<.<.8.).oXOXOXS.ZXZX0XZ.q.Z.7XZ.Z.S.t.^ 8 - ; ",
"@ o @ @ O > > , > 6 6 6 < < , 2 , , 2 J J 2 , T z.` W W L I 2 3 _ 8 3 3 _ 5.8.} ( ,.<.0.0.0.0.<.0.9X9XS.y.q.Z.i.Z.Z.S.V.t.^ ; 8 ",
"# + o @ o o O O > > 0 < , , , , O , & 2 I , & 1 9 3 J K j & & & * 3 _ I I I ( / ( ,.<.<.<.,.( ( ,.) y.7.7.i.i.u.i.Z.V.D.g.q # e.",
"+ +       o o @ O > > > , % , , O , % % & % o O , , & & & & $ & & * * K 7 * / y./ / / / / / ~ ^ <.4.) ) y.u.7.) u.t.V.V.q q # # ",
"X   +     o o   o o O O o o O O o O O % % % $ $ o $ & = & $ $ : = $ $ * K & * <.^ / / k u u ~ k / / ^ r.e.) ) ^ r.q q q q q # # ",
"X         o o   X o o o o o O % . O o O % % % & . o $ $ $ $ : . : $ : = * = : * ~ ~ k - - * - - - 7 8 _ 7 ^ e.8 e.8 q q q # # # ",
"X     X X   X X X   o o   . o O   @     o o o $ . o . o . : : : . = : : : : : - ; + = = = - - - = - 8 ; 8 e.e.8 ^ # 8 # # + + # "
};
