/* XPM */
static char *_255dae8d7bc4b5fc532b6b42596c10159yHevbdd161UNtt[] = {
/* columns rows colors chars-per-pixel */
"64 64 9 1 ",
"  c #4B3421",
". c #2E4613",
"X c #355612",
"o c #526710",
"O c #7F7913",
"+ c #64462D",
"@ c #88603F",
"# c #9E8E14",
"$ c #B9A617",
/* pixels */
"#####$$$$$###$$#######$$$$$$$$#############OO+OOOooOO##OOOO#####",
"O###$$$$$$$$#$$$#$$#####$$$$$$$$##########OO++OOOOOOO###OOOOOO##",
"O###$$$$$$$$#$$$$$$####$$$$$$$$$##########OO+OOOOOOOOO####OOOO##",
"OOO##$$$$$$##$$$$$#####$$$$$$$$##OO#########+##OOOOOO#####O##OOO",
"OOO#$$$$$$$$$$$$$$$#$$##$$$#$$##OO#####OO######O##OOO########OOO",
"@OOO$$$$$$$$$$$$$$$$$$$#####OO##OO##O##O#######O###OOOOO####ooOO",
"@@@O$$$@$$$$$$$$$$$$$$$$$OOOOOOOOOOOOOOO####OOOO###O##O######ooo",
"O#@@O##@$$$$$$$$$$$$$$$OOOOOOOOOOOOOOOOOOO##O##O######O######OOo",
"###@##@@#$$$$$$#$$#$$$OOOOOO##O##OOOOOOO####O########OO#####OOOO",
"###@@@@#$$$$$#######$$OOOOOO#####OOOOOOO#####################OOO",
"###@@###$$#$$#########O#OO######OOoOOOO######################OOO",
"$$@@#############################ooOOOo##################o##OOOX",
"$$@@$$#$$########################oooOOo##################ooOOOOX",
"$$@$$$$$$$###$$#################+++ooooO##+#######O####XXXXOOXXX",
"$$$$$$$$$$###$$$$$#######OO######o++++oOOO+O#####OOoOOOXXXXXXXXX",
"$$$$$$$$$$$###$$$$$######OO##O###oooo++OOO+O##O##oooOOoXooXXXXXX",
"$$$$$$$$$$$##$$$$$$######OOOOOOooooooO++O++OOOOOOOoooooooooXXXXX",
"$$$$$$#$$$##$$$$$$######OOOOOOOooooooOO+++OOOOOOOOOooooooooXXXXo",
"$$$$$###$$$$$$$$$$$#######O##OO##oooooO++OOOOOOOOOOooooooXXXXXXo",
"$$$$$#$$$$$$$$$##$$O#########OO###ooo+++OOOOOOOOOOooooooooXXXXXo",
"$$$$##$$$$$$$######OO#########O###oo+++OOOO##O###OOooooXooXXXXXX",
"$$$$$#$$$$$$$$#####O#############oo+++oOOOO######OOOooXXXXXXXXXX",
"$$$$$##$$$$$$$O##OOO##############o+++OO##O######OOOooXXXXXXXXXX",
"$$$$$$#$$$$$$$OOOOOO###O###########++##O########OOOoooXXXooXXXXX",
"#$$$$$###$$#$$OOOoOOOOOO###O########+##O#########OOOOoOOooooXooX",
"$$$$$#####OOOOooooOOOOOO###OOOO########OOO#######OOOOOOOOOoooooX",
"$$$$$$#O##OOOOooooOOO OO####OO#########O#########OOOOOOOOOoooooX",
"$$$#$$OOOOOOOoXXXOOOO oO#####O##################OOoOOOOOOooooooX",
"$$OOOOOOOOOoXXXXoOO   o######OOOOO###############ooOOOOOOOOoooXX",
"OOOOOOOOOOOOXooXoo  OOo#####OOOO##########O##O###ooOOOOOOOOooooX",
"O##OOOOOOOOOoooXX  OOOOO#####OOO##########OOOOOoooooOOoOOoooXooX",
"O####OOOOOOooooo  oOOOOO##O##OO############OOOOooooooooooooXXXXX",
"OO####O OOoooooo oooOOoOOOOOOOO###OO#######OOOXoooooooooo..XXXXX",
"######O ooooooo  ooooooOOOOOOOOOOOOO##O###XXXXXXXoooooooo....XX ",
"#####Oo  oooooo oooooooOOOOOOOoOOOOOOXXX....XXXXXoooooXoo...... ",
"######oo  XooXo ooooXXXoOOoOOooXXXXOOXX...XXXXooXooXXXXXX...... ",
"######ooo  XXXX oooooX.XooooooXX.XX.......XXXXooooooXooXX...... ",
"#####ooooX   XX oX.oo....ooXooXX......XX.XoooXooooooooooo.......",
"######ooXXXX    .........XXXXXX.......XXXXooooooooooooooo.XX....",
"######OOXXXXXX    .....XXXXXXXXX....XOOoOOoooooooooooooooXXX....",
"#####O##X##XXXX    ....XooXXXXXXXoooOOOOOOOoooooooooooooXXX.....",
"###########XXXX..   .XooooooooooooooOOOOOOOoooooooooooXXXX......",
"###########XXXXooo  OOoOOOooooOOoOOooOOOOOOooooooooooooXXXX.....",
"##########OO###ooo oOOOOOOooooOOOOOoOOOOOOoXXooooooooooXXXX.XX..",
"########OOO####OooooOOOOOOOooooOOOOOOOOOOOXXXXooooXooooXXXXXXXX.",
"#######OOO######OOoOOOOOOOOooOOOOOOOOOOOOOOXXXXXooXoooXXXXXXXXX.",
"#########O######OOOOOOOOOOoooOOOOOOOOOOOOOOXXXXXXXXXXXXXXXXX....",
"##############OOOOOOOOOOOOOoooOOOOOOOOOOOX..XXXooXXXXXXXXXXXX...",
"#####O#########OOOOOOOOOOOOoOOOOOOOOOOXOO....ooooXooXXXXXXXXX.XX",
"####OO#########OOOOOOOOOoOOoOOOOOOOXOOX......oooooooooXXXXX...XX",
"O####O##O#####oOOOOOOOOoooooOOOOOOOXX.......XoooooooooXooXooXXXX",
"ooo##OOOO##O##ooOOOOOOOoooooOOOOoOOXXX.....XXXooXoooooooooooXooX",
"oOOOOOOOOOOOOOOoOOOOOOOooooooooooXXXXXX...XXXXXXXXXooooooooooooX",
"OOOOOOOOOOOOOOOoOOoOOO...ooooXXooXXXXXXXXXXXXXooXXoooooooooooooo",
"oOOOoooOOOOOOOoooooOO....ooooXXXXXXXXXXXXXXXXooooXoooooooooooooo",
"ooOOooOOOOOOOOOOooooo.....XXXXXXXXXXX XXXXXXoooooooooooXooXoooXX",
"...XooOO OOOOOOOOoooo....XXXXXXXXX... .XXXXXoooooooooooXX.....XX",
"....ooo  oOOOOOOO.oo.....XXXXXXXXXXXX XXXXXXXooooooXooXX...XXXXX",
"....Xoo ooOOoOOOo.........XXXXXXXXXXX XXXXXXooooooXXXXXX.XXXXXX.",
".XX.    ...XooXoo......XX.XXXXXXXXXX.  XX.XXoooooXXXXXXXXXXXXXXX",
"  X  ........XXX....XX.XXXXX.XXXXXXXXX  ....XXooo XXXXXXXXXXXXXX",
"X   XoooXooXXXXX...XXXXXXXXX..XX.XXXXX. ..XXXXXX. .XXXXXX..XXX..",
"XX  XooooooXooXXXXXXXooXXXXXX....XX.XX. ..XXXXXX. XXXXXXX..XXXX.",
"..X XXoooooooooXXXXXXooooXXXXXX........  .XX.XX.  XX.XXX....XXX."
};
