/* XPM */
static char *ab7541d04b484e24d543967af50e79e12sencHXbMGCST0bT[] = {
/* columns rows colors chars-per-pixel */
"64 64 235 2 ",
"   c None",
".  c #010101",
"X  c #080A0B",
"o  c #140C04",
"O  c #1A0F05",
"+  c #18191A",
"@  c #1B1006",
"#  c #291809",
"$  c #37150B",
"%  c #39220E",
"&  c #393716",
"*  c #3C241B",
"=  c #09242E",
"-  c #2C2C2A",
";  c #382C2E",
":  c #081B23",
">  c #4A2C13",
",  c #5A3616",
"<  c #5B3817",
"1  c #563617",
"2  c #4D3017",
"3  c #633D19",
"4  c #6A3818",
"5  c #723D1A",
"6  c #7B2918",
"7  c #4A1F22",
"8  c #4D2124",
"9  c #5A252A",
"0  c #552728",
"q  c #5B3629",
"w  c #62292E",
"e  c #6A2D31",
"r  c #672B30",
"t  c #673A3C",
"y  c #571616",
"u  c #4A471C",
"i  c #524F1F",
"p  c #6F471D",
"a  c #595523",
"s  c #54452D",
"d  c #755129",
"f  c #795532",
"g  c #695329",
"h  c #656229",
"j  c #69642A",
"k  c #746F2D",
"l  c #7D7731",
"z  c #786C33",
"x  c #195C75",
"c  c #4B4A4A",
"v  c #595959",
"b  c #6C5351",
"n  c #7B7749",
"m  c #696850",
"M  c #767575",
"N  c #6D6967",
"B  c #AE171B",
"V  c #903128",
"C  c #D9191F",
"Z  c #ED1C22",
"A  c #82451D",
"S  c #8B5623",
"D  c #8A5523",
"F  c #945C25",
"G  c #9A5F27",
"H  c #845D37",
"J  c #9D6127",
"K  c #8A633C",
"L  c #857A36",
"P  c #906337",
"I  c #A46529",
"U  c #AB6A2B",
"Y  c #B36F2D",
"T  c #B5702E",
"R  c #B67232",
"E  c #C96B31",
"W  c #9A7647",
"Q  c #917173",
"!  c #AF7573",
"~  c #99624C",
"^  c #7D814E",
"/  c #8E8E04",
"(  c #929208",
")  c #9B9A14",
"_  c #8F9005",
"`  c #A2A11D",
"'  c #AEB314",
"]  c #B1B517",
"[  c #B6B91C",
"{  c #82892F",
"}  c #8A8436",
"|  c #898834",
" . c #938C3A",
".. c #968A3A",
"X. c #8C9234",
"o. c #9B943D",
"O. c #979939",
"+. c #A29A3E",
"@. c #A6993E",
"#. c #A9A726",
"$. c #BCBE22",
"%. c #A3A63D",
"&. c #B7B539",
"*. c #B1AF31",
"=. c #9FA02A",
"-. c #BEC024",
";. c #C3C328",
":. c #CDCB32",
">. c #D5D23A",
",. c #D2CF37",
"<. c #9A9A44",
"1. c #888752",
"2. c #978A52",
"3. c #A49D40",
"4. c #9FA344",
"5. c #ADA543",
"6. c #A9A846",
"7. c #B5AD46",
"8. c #B6AE4B",
"9. c #BAB248",
"0. c #B8B644",
"q. c #B2AC56",
"w. c #B9B756",
"e. c #ABA854",
"r. c #8F8D71",
"t. c #A6A975",
"y. c #B7B26D",
"u. c #9FA163",
"i. c #C4BC4B",
"p. c #C0BF5B",
"a. c #C2BC6B",
"s. c #EFAE66",
"d. c #C5C24B",
"f. c #CBC34E",
"g. c #CECA4F",
"h. c #DDD942",
"j. c #CCC651",
"k. c #CAC759",
"l. c #D3CC53",
"z. c #D2CC57",
"x. c #D6D154",
"c. c #DBD355",
"v. c #DAD45A",
"b. c #DBD559",
"n. c #E4DE48",
"m. c #E2DA56",
"M. c #E5DC59",
"N. c #E7DB58",
"B. c #F8CA5A",
"V. c #E8E24C",
"C. c #EDE651",
"Z. c #ECE35B",
"A. c #E9E25C",
"S. c #F4EB5D",
"D. c #F8EE5D",
"F. c #F4E75A",
"G. c #FAF05E",
"H. c #C9C664",
"J. c #D2CE64",
"K. c #D5D163",
"L. c #DBD66C",
"P. c #DDD86C",
"I. c #D8D368",
"U. c #DED971",
"Y. c #E1DB6F",
"T. c #E4DE73",
"R. c #FDDA76",
"E. c #F7CF6B",
"W. c #F7EC60",
"Q. c #F9EE61",
"!. c #FEE56E",
"~. c #FCE969",
"^. c #FFF463",
"/. c #FFF965",
"(. c #FFF068",
"). c #E7E076",
"_. c #E8E278",
"`. c #E8E277",
"'. c #FFE273",
"]. c #1D6783",
"[. c #287A98",
"{. c #2A728D",
"}. c #328DAF",
"|. c #4C879C",
" X c #7E8991",
".X c #4F90A8",
"XX c #6B98A9",
"oX c #74A0B1",
"OX c #999999",
"+X c #888B86",
"@X c #A39E9E",
"#X c #B8B799",
"$X c #B0AD8F",
"%X c #839BA5",
"&X c #88A9B5",
"*X c #95B2B4",
"=X c #A9A7A6",
"-X c #B7B6A5",
";X c #BAB9B5",
":X c #B1ADB1",
">X c #A698A0",
",X c #C98588",
"<X c #D98F92",
"1X c #E5989A",
"2X c #C2B694",
"3X c #C1B3A9",
"4X c #F9B2AB",
"5X c #F5B691",
"6X c #BBC489",
"7X c #C3C688",
"8X c #C7C6B7",
"9X c #D3D4AD",
"0X c #8FB8CB",
"qX c #B0BEC3",
"wX c #B2C9D1",
"eX c #AFDEF1",
"rX c #B4E5FD",
"tX c #9DC1D3",
"yX c #C3C3C4",
"uX c #CAC9C7",
"iX c #D8D8C7",
"pX c #CBD3D6",
"aX c #D9D8D7",
"sX c #CCCFD1",
"dX c #E1DEDB",
"fX c #E1E3CC",
"gX c #E5E5DA",
"hX c #E3E3E3",
"jX c #ECECED",
"kX c #EAE8E6",
"lX c #F2F2F4",
"zX c #FFFEFF",
"xX c #FBF4F5",
"cX c #F6EAE9",
"vX c #DEE0E1",
/* pixels */
"                                                                                                                                ",
"                                                                                                                                ",
"                      X.X.{       O.X.{         O.X.{                                                                           ",
"                    4.z.A.x.g.g.m.Z.Z.c.f.f.c.A.S.A.g.0.%.%.0.d.d.7.%.O.%.0.0.0.%.%.6.7.%.                                      ",
"                  X.J.P.S.^.^././.D.F./.^./.^./././.^.^.Q.W.^.^.^.^.W.F.W.^.^.^.S.S.Q.^.S.7.                                    ",
"                  e.T.L.A./.^./.V.-.[ :.S.^.^.^.^.^.^.^.^.^.^.^.^././.^././.^.^.^./.C.:.V.l.                                    ",
"                O.L.`.L.c.^.^.D.;.] ] ] n.D.G./.x.} D.D.j.Q.^.^.S.M./.^.5.l.^././.G.;.' :.g.{                                   ",
"              <.J.U.P.U.l.^./.F.[ ] ] [ V.+.o./.f.i S.x.i N.^.^.m.a N.G.h 9./.i.d.G.;.-.V.g.                                    ",
"            <.L.P.#.) K.k.S.^.^.>.[ ;.>./.f.u e.2.m t.n k Q.^./.Q.j <.y.m e.c.i %.^.S.D./.d.                                    ",
"            p.).0._ / d.U.v.^.^.G.F.S./.^.c.r.yXlXxXlXhX-Xe.S.D.a.#XaXjXjXgX=Xn D.^.^.^./.0.                                    ",
"          4.L.).#._ ( d.).J.S.^.Q.:.>.^.M.$XxXzXzXzXzXzXzXyXq.a.sXzXzXzXzXzXzXaXH.D.^.^./.d.                                    ",
"        <.J._.U.#._ ( l.).U.A.^.^.h.V.Q.y.jXzXzXzXzXzXzXzXzX@X;XzXzXzXzXzXzXzXzXuXv./.^./.x.                          i         ",
"        w._.).).&./ ` U.).U.A.^.^.^.^.M.#XzXzXzXzXxXwXoX&XvXdXyXzXhX*X&XaXzXzXzXxXy.^.^.^.c.X.                    a f.7.        ",
"        k._.).).I.*.j.).).L.b.^.^.^.^.z.uXzXzXzXzXpX}.x x XXkXyXjX.X{.].|.vXzXzXzX#XS.^.^.c.{                   u l.i.u         ",
"        4.T.).).).).T.).).L.l.^.^.^.^.k.uXzXzXzXzX*X}.. . {.aXyXsX[.X X {.*XzXzXzX7XW.^./.l.                    o.l.&           ",
"        { w.).).).).).).).L.j.^.^.^.^.c.8XzXzXzXzX0X}.= = |.pXyXpX[.= : [.qXzXzXzX2XW.Q.^.0.                  2 +.h             ",
"          O.L.).).).P.T.`.).k.W././.^.F.$XcXcXcXzXlX&X}..XpXyXsXzX%X{.[.XXkXzXzXaXy.G.^./.%.              k  .i 9.+.&           ",
"            p.).).K.` *.Y.).K.A.^.^.G.~.s.B.E.s.4XcXzXhXlXhXu.-XzXxXaXsXlXzXdX9Xa.7.l./.^.0.            u x.^.o.} 7.+.          ",
"            q.`.).&._ ) P.`.I.A.^.^./.B.B./.~.F.B.5XxXzXaXy.Z.k.8XlXzXcXiX2XI.S./.F.o.Q./.i.            l j.9.} i.W.l.          ",
"            4.).).#._ ` P.`.I.A.^.^.^.F.F.N.B.F.Q.B.2X$Xw.S.^.Q.q.u.$Xa.M.D.^.^.W.3.5././.d.            l ^.i. .j.f.+.          ",
"            X.H.).*./ &._._.U.Z.^.^.^.^.^.b.} i.Q.B.m.F.^.^.^.^.Z.N.S././.W.M.9.} 5.Q.^./.0.              f.W.N.9.9.i           ",
"              4.U.v.0.I.d.*.k.A.^.^.^.^.^.^.L o.^.^.^.^.^.^.^.^.^.j.5.o.} } } 5.M.^.^.^.G.%.              a m.A.f.h             ",
"                H.`.`.P.) / #.b.^.^.^.^.G.^.z * ..M.^.(.^.^././.^.^.Z.c.5.i.W./.^.^.^.^.Z.O.              h f.a                 ",
"                w.).).K.( / ) k.F.^.^.^.^./.L 9 0 q z } 6.8.w.9.7.8.8.q.<.k 9.^.^.^.^.^.c.{               +.+.                  ",
"                w.).).I.( / #.I.M.^.^.^.^.^.L 9 e e w 8 M uXyXv * Q sXyX1.N.S./.^.F.S./.g.              u i.h                   ",
"                6.U.).P.#./ &.U.v.^.^.^.^.^.L 9 e e e 9 >XzXzXQ 0 :XzXlXu.^.^.^.>.[ $.C.m.              } 9.                    ",
"                  w.).).d.#.L.U.z.^.^.^.^.^.L 9 e e e w N >X>Xb 0 M -X-Xq.^.^.C.[ ] ] >.Z.              f.l                     ",
"                    H.).).)._.U.v.^.^.^.^./...9 e e e e 9 0 9 w 0 g V.A.W.^.^.V.] ] $.C.Z.O.           .i.                      ",
"                    e.T.T.T.z.I.z.^.^.^.^./.@.7 9 9 w e r e t e 0 } /.^.^.^.^.S.>.>.C.^.k.h M N     u l.k                       ",
"                    <.L.).j.( d.J.W./.V.C.^.d.b ! ~ t 9 t w 9 e 7 5./.^.^.^.^.^.G.^./.D.e.8XaX=X- u 9.@.                        ",
"                      u.y.#.( x.I.Z.^.:.n.^.W.W <X4X1X,X1X<Xb 8 0 f.^.^.^.^.^.F.:.,.^.Z.6XzX@X<.7.f.5.&                         ",
"                    +XjX8XO.d.).P.M./.S.C.C.^.c.2.! ! ,X<X1X,X7 2 N.^.^.^.^.^.,.' -.S.V.9XzX-Xn j u                             ",
"                    yXzXlX$X).).L.A.^.h.[ $.S.!.~.j.<.l z z L ..z.^.^.^.^.^.^.h.;.n.^.N.9XzXhXOX                                ",
"                    aXzXzX6XY.).U.A.^.-.' $.D.~.R.R.'.R.E.'.'.!.'.!.^.^.^.^.^.^.^.^.^.M.^ M v                                   ",
"                  v jXzXzX8XL.).T.W.^.>.;.C././.(.!.~.!.'.'.R.R.!.^./.^./.^.^.^./.^./.d.                                        ",
"                  v jXzXzX-Xu.6X6XJ.V.c.c.c.m.F.A.z.k.z.b.Z.Q.F.A.b.z.x.N.S.Z.M.v.x.d.O.                                        ",
"                    r.=X=X%XtXeXeX*X6X9XfXiX6X1.t.iXfXfX-X1.R E P OXaX9Xt.t.9XfXgXiXr.                                          ",
"                      } W 0XrXrXrXtXhXzXzXzXzXhX:X:XaXsX3XsX~ B 2XpX;XyX;XlXzXzXzXzX@X                                          ",
"                      3...c N +X&X%XwXgXhXhXkXcXkXsX:X;XdXaXb B >XaXyX;XaXdXdXaXaXaX+X                                          ",
"                       ...> o O > q d P H H K P P W K K f q B C 0 d f f P H d d g d 1                                           ",
"                      } +.4 , % 2 5 J S # # # # D F # O o $ C Z y O O O D 1 o o o > <                                           ",
"                      } @.4 A A A 5 G U G F F S U U S D D 5 B C V S F G U I S F G I 3                                           ",
"                      } 9., 5 A A 5 J T Y Y Y Y Y Y Y Y Y U A V G Y Y Y T Y T T T Y <                                           ",
"                      } Z.j $ > 4 5 G T Y Y Y Y Y Y Y Y Y Y U J Y U U U I U I I I J >                                           ",
"                      7./.c.&   O % , 3 4 3 3 3 , < < 1 1 2 > 3 < < < < 1 % % % # #                                             ",
"                    a N.^.S.a   $ S S S S S F 3             o p I I I I D                                                       ",
"                    L Q.^.M.5.    p I U Y Y I 3                 p d p 3                                                         ",
"                    } l.x.h 3.      # a 1 >                     k o.                                                            ",
"                    u } z.k           9.h                        .3.                                                            ",
"                      a o.}           i.h                        .5.                                                            ",
"                                      i.a                        .@.                                                            ",
"                                      6.u                       n n                                                             ",
"                                      OXc                        X+X                                                            ",
"                                      >Xc                       Q Q                                                             ",
"                                      3Xb                       OX:X                                                            ",
"                                    - sXM                       c v                                                             ",
"                                    X N -                     . . . .   . .                                                     ",
"                                  . . . . . . .               . . . . X c + .                                                   ",
"                                  . . . . . X + .             . . X . X ; X .                                                   ",
"                                    . X . . + - .               . + . . . . .                                                   ",
"                                      + X . . . .                       .                                                       ",
"                                            . .                                                                                 ",
"                                                                                                                                ",
"                                                                                                                                "
};
