/* XPM */
static char *_aa40dcc9d6a4ee3d500343355186fdeltGlrGLKp2HRwR1Y[] = {
/* columns rows colors chars-per-pixel */
"64 64 256 2 ",
"   c #681A01",
".  c #7D1D00",
"X  c #5A2607",
"o  c #58320C",
"O  c #582E0E",
"+  c #6C2303",
"@  c #652C0B",
"#  c #692707",
"$  c #772A08",
"%  c #6B340B",
"&  c #7C390D",
"*  c #77330C",
"=  c #662D12",
"-  c #732D12",
";  c #7C2E12",
":  c #6C3315",
">  c #643A14",
",  c #693918",
"<  c #743413",
"1  c #7B3314",
"2  c #743A15",
"3  c #7C3C13",
"4  c #7C3C1B",
"5  c #75381A",
"6  c #773C22",
"7  c #6E3C22",
"8  c #551D00",
"9  c #5D431A",
"0  c #66441A",
"q  c #78431B",
"w  c #6B4A25",
"e  c #7B4223",
"r  c #784826",
"t  c #6D5528",
"y  c #7A542B",
"u  c #7B5733",
"i  c #7A4A32",
"p  c #872909",
"a  c #84340D",
"s  c #89370B",
"d  c #96370B",
"f  c #843413",
"g  c #8B3513",
"h  c #843C14",
"j  c #8C3C15",
"k  c #843C1A",
"l  c #8C3C1B",
"z  c #87361B",
"x  c #933413",
"c  c #933C15",
"v  c #9B3C15",
"b  c #933D1B",
"n  c #9B3C1B",
"m  c #9A3516",
"M  c #922D10",
"N  c #A43A0A",
"B  c #A33C1B",
"V  c #A53C14",
"C  c #A12A12",
"Z  c #883D24",
"A  c #963C22",
"S  c #AC3E24",
"D  c #871F02",
"F  c #8C4314",
"G  c #85431C",
"H  c #8D441B",
"J  c #8C4A1D",
"K  c #864618",
"L  c #924414",
"P  c #94431C",
"I  c #9B441B",
"U  c #934B1B",
"Y  c #9C4C1C",
"T  c #9A4715",
"R  c #9A541B",
"E  c #904912",
"W  c #A3441D",
"Q  c #AA441C",
"!  c #A44C1C",
"~  c #AB4A1D",
"^  c #A64515",
"/  c #B5451B",
"(  c #A5531C",
")  c #AA561B",
"_  c #B3541D",
"`  c #834222",
"'  c #8B4422",
"]  c #844B24",
"[  c #8B4C23",
"{  c #844C2B",
"}  c #8C4C2B",
"|  c #864529",
" . c #944322",
".. c #9B4522",
"X. c #944C23",
"o. c #9C4C23",
"O. c #944C2B",
"+. c #9A4D2A",
"@. c #9B4629",
"#. c #8C532B",
"$. c #895528",
"%. c #945224",
"&. c #9C5325",
"*. c #94542A",
"=. c #9C542B",
"-. c #945A2C",
";. c #9C5A2C",
":. c #9B5925",
">. c #8B4D32",
",. c #885636",
"<. c #945433",
"1. c #9C5532",
"2. c #945B34",
"3. c #9D5C32",
"4. c #935B3B",
"5. c #9C5D3C",
"6. c #985438",
"7. c #984E30",
"8. c #A34323",
"9. c #A34C23",
"0. c #AB4C23",
"q. c #A44C2A",
"w. c #AB4C2B",
"e. c #A74526",
"r. c #B44C27",
"t. c #A35324",
"y. c #AC5424",
"u. c #AB5B24",
"i. c #A3542B",
"p. c #AC532B",
"a. c #A35B2C",
"s. c #AB5B2B",
"d. c #A55B26",
"f. c #B35324",
"g. c #B45A24",
"h. c #B3542B",
"j. c #B45C2B",
"k. c #BA5829",
"l. c #A45532",
"z. c #AB5532",
"x. c #A35C33",
"c. c #AC5B33",
"v. c #A35C3B",
"b. c #AA5D3B",
"n. c #B35532",
"m. c #B35B34",
"M. c #BA5B34",
"N. c #B35E3A",
"B. c #BA5736",
"V. c #A64D30",
"C. c #9C622B",
"Z. c #886439",
"A. c #9C6233",
"S. c #9C633C",
"D. c #976638",
"F. c #A7622A",
"G. c #B3622B",
"H. c #BA632C",
"J. c #B56626",
"K. c #A36234",
"L. c #AB6334",
"P. c #A5643B",
"I. c #AC653B",
"U. c #A36A3B",
"Y. c #AC6B3C",
"T. c #A96934",
"R. c #B46334",
"E. c #BB6333",
"W. c #B36B35",
"Q. c #BC6B33",
"!. c #B3643B",
"~. c #BC653C",
"^. c #B46C3C",
"/. c #BC6C3C",
"(. c #AB723C",
"). c #AD793F",
"_. c #B6733A",
"`. c #AB601F",
"'. c #C35C37",
"]. c #C45B2D",
"[. c #C4662C",
"{. c #C46937",
"}. c #C5743B",
"|. c #D17239",
" X c #975C41",
".X c #8E6542",
"XX c #996846",
"oX c #9A734B",
"OX c #9C7653",
"+X c #A46543",
"@X c #A36A44",
"#X c #AC6D43",
"$X c #A56B4A",
"%X c #AC6D4A",
"&X c #AB6546",
"*X c #B36D43",
"=X c #BB6C43",
"-X c #B66948",
";X c #AC7245",
":X c #A3744B",
">X c #AB734B",
",X c #A97848",
"<X c #B37344",
"1X c #BB7444",
"2X c #B4754B",
"3X c #BC744B",
"4X c #B47B4C",
"5X c #BA7A4C",
"6X c #B87945",
"7X c #AB7451",
"8X c #A77A56",
"9X c #BC7352",
"0X c #B47A54",
"qX c #BB7C53",
"wX c #B67857",
"eX c #B16D51",
"rX c #BC7C62",
"tX c #C36D43",
"yX c #C66A44",
"uX c #C57443",
"iX c #C4744B",
"pX c #C47B4B",
"aX c #CB7C4D",
"sX c #C87747",
"dX c #D47849",
"fX c #C47C52",
"gX c #CA7C53",
"hX c #C87957",
"jX c #D47850",
"kX c #B8824D",
"lX c #AC845A",
"zX c #BC835B",
"xX c #B88456",
"cX c #AC814F",
"vX c #AC8461",
"bX c #B98864",
"nX c #B19063",
"mX c #C6824C",
"MX c #C48354",
"NX c #C4855C",
"BX c #CA8759",
"VX c #D58959",
"CX c #D48C56",
"ZX c #E2915D",
"AX c #CB8C63",
"SX c #C58964",
"DX c #D38A62",
"FX c #C99367",
"GX c #D79569",
"HX c #CD9773",
"JX c #D99A71",
"KX c #E39266",
"LX c #DAA379",
"PX c #E6A77B",
"IX c #D8A885",
"UX c #E2AB82",
/* pixels */
"9 t t 9 t u u Z.0 o X u w 7 w w w o 0 oX.XZ.w > O > > , oXoXr 5 Z.4.r ,.,.0 e y oXZ.t 0 lXlXi u u 0 0 u t t 9 y cXt , r y 9 w t ",
"Z.OX.X.Xu XX.XOXu w r .XoXOXOX.XZ.D.:XlX8XvX8X.Xw u 8XOXwX:XS.S.XXeXeX%XD.D.0XSXbXbX8XXXbXvXOXbXOXoXlXnXcXnXcXlXoXoX$X7X.XoXOXoX",
"e  X,.e : 6 = = @ 5 6 5 >. X>.| : ] 4.q , { 4.7 7 - XX6 } 4 4 G k O.v.1.k ` %X4X< 4 2 2 5 ` { wX} < 7X@X[ } ` *.[ 1.<.wX&XrX$X X",
">.XXe 7 = e : 7 X : 6 5 >. X6 7 % 2.XX@ X ,.$X, 6 X  X6 4 # < 1 ; k [ O.f h 3.*.h h % 2 # < 5  X' + wXS.- # # % k . # eX&X6.| ,.",
"u Z., o o y u OX> O O O .X.X7 O , oX:X, > oXvX, = X 8XXX} @ < 4 3 3 K *.H F A.A.G k % 2 % 5 6 | Z 6 bX,.# 5 @ @ -   # ,.6.= , .X",
":XvXoXXXu XXOXIXOX.X.XOX8X8XoXoX8XxXlX0X8XbXHX8XXXXXIXUXHX@X0X0X#XY.#X<XK.x.kXNX*X<X%XxXqXSXSXHX+X XFX0X$X7XD.XXeXwXwXwXrX8X8X8X",
"O.v.7.| 6 5 Z eX Xi  XrX| | i >.2.#.} wX$X<.+X+X$X<. XeX9X<.v.O.^.=X/.R.L.s./.tXiXpX-XhXDX9X9X9X&X XeXrXHXFX+X9XSXHXwXrXrXbX8X.X",
"Z z -   - - Z eX- = Z rX- - 7   - ` Z 5.k k O.k 7.k $ | 7.- h + b t.W I t.t.0.x z.p.n S -XA A ; + < + k XX>X< - @X@X5 6 = , O = ",
"5 < - # = = 7 OXX = 7 XX7 8 8 = # } z ' l ' ' k +.* + O.b.* < $ F 9.h.9.t.s.h.V c.c.w.B -X .p f 1 + - < ] $X*   #.%X$ + : X X = ",
"<.%X4.i  X X XrX8 = =  X X.X,.6 <.*.} %X9X+X3.v.b.- 4 &XAX&X1.b.<X&.s.d.s.L W I R.m.q...b.q.@.V. .1 +.+X>XzXk * #X%XZ Z } { y q ",
"qXSX6.6.XXeX X.Xi  X7  X XSXrX$X$X@X$X;X0XqXSXqX@X2.0XqXHXSXqXbXAX<XNX<XT.U I.L.iX=X*Xb.3X9XSXGXhXP.9XAXAXJXqXAXhXDXAXHXSXSXwX8X",
"7.5.= 7 i  X= 7 O 7 8 = , XX| 5 q { 2.2 2 $.@X$.G #.U.} { ` q 2 % @ -.* a $ ;.h o.c J 3 b +.9XhX+.j 3.*X+.c.*.K.q.N.-XiXb.b.' #.",
"< &X` 2 6 XX7 7 , 7 = = 6 eX>.| ' #.P.' k X.v.U F G H O.1.4 G - 1 + ] * l f =.$ I M b h g b -XhX8.8.-X=Xv I H L S h.w...8.8.+ Z ",
"] S.2 @ 7  XX X 7 = 8 = 5 $X>.6.Z *.6.1 1 x.l.h + F O.=.v.` } % < q +X1 f p +.a m $ a a g g b.=Xb +.!.R.P &.P c I M.n.9.V.q.1 l.",
"SXxXD..X8XOX.Xi i 7 ,.XX4.wX6.6.$XbXzX#.*.NXqXP.3.4XAXzXqX>X:X2.r XXwXS.<.P.SXhXqXP.b.-X2X+XqXSX*.I.2XBXkXMX^.K.%.Y.<X3X#XP.[ U.",
"] 5.4.{  XXXXXXX7 7 4.4.: >.6 | S.7X4X3.[ 3.K X.3.[ #X2XAXAXxXSX0X5.+XeXeXP.N.iXKX-X!.-X9Xv.v.I.5X4XY.(.).kX^.^.6X(.!.iX^.#X3.%.",
"k ; - Z ; Z 1 <.; z 1 O.  Z 5 5 4 ' G f j b j l b f A g =X9.! p.y.x W h.{.V M d Q p D p B.x S A a i.a U &./.^ |.F.F.) [.M.y.9.h.",
"- Z Z O.f A 1  .z f 1 5.1 -   - < 4 k l P b x g f z b f n.w.~ ~ [.^ v ~ {.f.Q Q 0.m V x V.p A n g ..a U a.}.~ [.W._.) _ f.0.9.t.",
"4.{ e #.] S.#.S.A.} #.%X X{ r 4.] ] q G +.=.X.O.O.v.O.l i.!.G.s.!.F.:.d./.a.U U pXX.J =.-Xv.&X<.O.1.#.U.#X6XY Y C.).:.C.t.a.=.%.",
"FX:X>.XX@X0X&X2X%X@X&X%X$X%XwXwX7X$X5.=.*XhX3X!.b.9Xb.l.a.uXuXuXDXBXpXT.^.F._.MXmXL.P.0X%X%XSXSXAXfXwX:XI.1X3X6XBXGXkXkXI.K.-.$.",
"' k ; l & +.n 8. .X.8.n @.+.@...| <.O.l @.N.q.g A l.A @.c 9.h.g.L y.~.h.m.y.p.n.s.o.o.i.f H -X-XA S eX-Xw.w.s.i.t.c.;.Y.m.w.1.#X",
"G =. .J G *XN.n.o.U n m ......@.Z v.v. .P q.8.n ..z.@.l.I I ~ ! s T 0.I W ! p.W w.......z +.-X@.z A &X1.M p s j P a.K.mXyXV.O.P.",
"D.D.D.-.q (.=.X.$.[ h H O.X.j O.5.$XS.X.O.=.=.+.J +.k J s s Y E F X.^.c.c.R.!.P X.l.P.=.[ *.>X*.- Z oX$XZ 3 % % [ -.$.cXY.&.$.D.",
",XcXxXFXcX0XU.4X3.P.a.L.I.c.J H 4.#.e [ ;.=.l * O.1.G J J ;.pXR.x.L.fX*X^.MXKXsXgXBXBX5XNXDXHX2.6.XXlXlX4.%X<X;XxX,X] $.& % % $.",
"K K U.v.i.b.=.3Xc.p.o.tX'.{.n j <.2 % G &.=.X.H 1 K & * :.a.d.a.~.N.~.q.W p.w.n.yXtX=X=X=XhXBXP.<XP.[ [ #XDXc.R.6XA.F q.I I P F ",
"h 1 H J  . .k H ..n j N.n.h.x c [ 2 G k &./.d.s.&.=.H * +.i.s.p.o.z.N.s.0.p.v v h.M.m.m.c.c.&.+ a h q q *.!.9.M.R F.9.k.^ 0.0.0.",
"k H 3 ` .. .} G V.q. .!.n.n.c I  .h i.s ! uXj.M.~.m.q.I p.s.M.y.X.&Xa.=.I t.Y I s.~.G.I.^.I.%.* + + & K K.6XW W K T.E.M.r.0.y.! ",
"O.P.5.1.=.v.%X&X-Xb.1.<XN.s.P X.X.F t.s T M.! ) p.o.9.b q.9.0.c X.3.& h * F &.&.a.R.&.&.Y.Y.A.-.%.[ -.C.6XmXW d C._.E.h.f.y.y.! ",
"+XwXbX+Xv.wX0X7X%Xv.S.4X3X*XP.<X<XY._.d.Q.Q.Q.R.R.a.L.x.I.c.m.U P.#X;.I.a.L././.sXsXs.F.6X5XmXMXVXBXFX2XY.^.p.s.<X6X/.E.{.E./.^.",
"` <.5.` 4 4.,.e , @ @ ] #.*.-.Y.<XF.W.F.Q.J.Q.s.F.a.a.X.a.i.t.P L.;.L.!.s.j.uXH.M.g.Y ( j.F.^.1XR.!.qX:.h j j o.%.:.a.F.t.Y L.T.",
"e +X6.6 7 ,.4.6 > 8 8 : r $.A.<X6Xd.sX[.J.J.[.g.H.~.m...p.9.e.9.c.P ~.p.W k.dXS / V N ~ ~ ~ g.n.n.n.3X+.v n ..o.+.U P.Y.c.t.6X(.",
"l eX1.3 % e XXe y > @ 2 $.$.A.4XpXd.ZX}.J.Q.[.g.g.E.s.j 9.b c I c.c sXp.n ].jXV r.V ^ k.f.~ M.h.N.N.fXO.g g P &.P h ;.;.t.s.kXT.",
"{.m.s G %.$.D.cXoX,.bXzXNX1.b.X.[ ;.<XY._.T.F.U R K.K :.Y.K.<X(.s.W.pXx.*XMXDX-XmXCXCXuXVXVX1XiX0X0X;XqXBXK._.fXaXpX6XW.a.a.Y.(.",
"f.~ ^ t.I.-.A.D.A.q A.P.3X=.c.i.%.:.K.;.L.Y.W.:.d._.& K ;.;.U.MX_.s.E J K A.U.#XmX_.^.F.1XL.;.K.3.3.-.P.CX_._.F.mX_.W.T.F.L.F.t.",
"[.k._ ) y.! s U L.U J &.!.9.R Y Y Y t.s.uXuX/.u.T sXE T W.R.&.pXG.H.R E & ;.F.L.6X`.`.`./.E E R T T Y L 6X_.).F.Q.J.W.F.( ~ ~ ^ ",
"E.! ( Y Y T F &.!.t.H a.!.&.F J &.P t.R.mX}.G.Y G.pXL F =.a.a.BXs././.R E :.T.T._.R R `.W.E %.Y t.L ( F W.`.).C.)._._.J.( ^ _ f.",
"6XT.(.U.U.K.;.*Xv.3.*.;X,XS.U.,X,X3.P.<XzXY.Y.Y.5X;X;.q [ $.;XNXI.^.x.a.-.-.K.kX).`.`.J.I.x.>XP.L.o.I.;.MX(.).C.kX(.F.F.d.y.p.9.",
",X(.kX6XT.K.!.=XI.Y.c.3X4XU.kXxXkX(.<X5XmXY.Y.6XkX<XNX<X2X@XNX0X=XjXI.(.T.BX).BXCXmX).mX(.MXPXBXpXI.VXBXZXkXmXmXBXmXkXmXpXuXuX/.",
"T ^ _ H.( ^ ].|.E.H.f.].u.R }.Q.H.H.{.J.H.y.g.u.y.~ {.u.! L y.Y d [.( ( E }.`.`.[.J.`.) ! J.VXW.a.E Q.J.F.( _ J.J.J.{.}.J.J.G.G.",
") J.|.mXE.~ ].[.G.H.f.k.g.) dXH.g.{.}.) ) ( G.( y.u./.E.! T L s v E._ ) ( `.`.}.|.J.J.) ) ) CXd.W.R J.F.J.J.j.g.[.g.g.Q./.W.T.:.",
"U -.5XY.U.U.6XT.T.C.A.T.:.6XfXI.U.A.FXT.-.q $.C.-.S.zX(.D.D.$.3 j gXi.i.X.a.6XR _.J.R R E 6XBX[ $.C.4X-.=.i.J l.b.v.x.&X3.2.@X8X",
"I.A.;XkX5XkXcXkXAX5XkXFX6XsXsXuXC.-.kX(.kX,XkXxXLX,XkXcXSX4X;X4X!.uX=X=XI.5X6X5XmX}.F.J.mXGXGXpX;X;XNX%XNXNXeX9X-X&X%X%X$X>XxXSX",
"~ ^ L t.) J.R :.{.k.R ) N N N N ) T g.u.}.G.d.T.CXG.W.R.mXW.}.}.g.f.E.{.G.R.u.`.|.|.) ) |.[.Q.}./.R.R.t.VX^.a.%.*X;.=.F f U +.i.",
"~ g.&.( V J.R :.|.|.G.u.V / N N ^ L ^ ) uXg.Y H.Q.G./.) }.J.J.) _ {.H.~.s.G.G.d CX|._ T [.[.{.|.dXE.f.I aX&.F * I.G H   + g b o.",
"*.*.$.K L x.C.C.H.j.:.:.! 0.d s L Y &.X.(.=.J ^.qX;.U :.6XR R F.j.H.s.o.+.a.l.j |.[.H.( g.g.J.{.}.m.s.o.fXO.G 3 +X5 Z $ - 1 f  .",
"FX,X7X4X*XpXMXsX/.j.t.R.R./.T.I.-XgX=XI.*Xa.X.P.6XY.K._.CXW.Q.mXdXs.gX!.-X-Xz l.a.T h.[.g.( ) ) E.y.E.d.~.o.o. .hXb.hX9X3Xl.7.v.",
"cXD.v.^.F s.k.r.g.^ V r.T W.uXtXy.yXM.! 9.I c P p R.Q.R.H.Q.{.}.|.u.mXQ.3X+.  l.9.I h.{.{.[.].J.{.) uX[.].h.B.B.n.n.jXhXgXI.3X2X",
"Z.$.=.R.X t./ S ! ! / / s W.uXp.W [.0.v W 8.L d d yXE.g.g.|.[._ J._ k.Y q.+   w.y.h.k._ ~ [._ ^ ) E E.h./ r.r.r.B e.yXn.s.F L.c.",
"0 Z.-.K.X % ) T Y U Q Q F ;XiXn.9.y.o.Y I b P g p ~.h.M.y.M.g.g.k.{.y.I I g   p.o.W ! ( _ _ _ g.) H.}.y.{.r.f.].Q B jX{.h.9.}.s.",
"cXC.x.T.$.4XT.^.!.F.n.yXI.NXVXjX=X/.s.i.i.i.c.c.P aXjXsXE.E.H.g.E.{.h.~ 9.9.a !.iXtXtXE.|.H.g.) ( t.s.9.tXj.k.j.E.M.sX{.y.s ^.R.",
"z.N.jXB.I dX=XVXdX'.yXMXfXDXhXiXDXmXI.^.1X1X2X!.i.iXBXZXaXR.E.aXZXZXCXaXpXVXfXDXBXVXGXpXZX/.sXdX6X<XpX6XKXaXaXsXVXVXuX^.L.F 6Xa.",
"B M p S C M s 1X'.r.o.^.x.i.J l &.a.&.a.=.P b j U 9.c.tXu.p s y.y.9.! Y P i.+.H U &.i.Y E.u.( j.( U t.t./.I I Y M.uXR.9.d.Y a.F ",
"A S m B C S E _.'.r.;.6XK.X.& & Y 9.q.!.yXz.9.x w.n.~.M.e.v ^ 0.k.r.r./ e.0.h.M w.r.W n.].].^ V ~ I w.0.'.v N B '.'.B.r.h.0.0.p.",
"f p n q.m A q FXw.9.R A.*.J % & o.o.o.m.=X=Xc...p.I p.9.I d v ~ Q V r.0.v v e.p x e.h.{.Q r.d V W c I v M.B m v ZXn.W W n.9.n s.",
"XX@X#X3.5.JXbXFXfXgX3XzXxX5XY._.Y.MXDXBX9X-XMXDXDXx.=XiX*XY X.^.s./.aX1X!.x.5XI.*.I.gXDXL.F.R./.K.A.I.A.5Xx.x.x.KX=XX.3.I.A.A.U.",
"Z.:X2 3 q ,XcXJ I.I.i.x.C.P.d.i.L.I.K.;.=.%.x.=.x.& &.=.&.h j U P a.1X^.;.J *X*XI.=.^._.:.t.I.d.:.K.#X;.I.[ %.x.O.I.;.K.%.[ 2X3X",
"0 2.1.l.q $.G G ' ..8.e.  o.B.r.z.N.j o.q.P a s c $ ..o.$ p c c W d r.h.B.m D n.B.w.B.B.W r.p V x B.n...A m M n B n p M p . n z.",
"r 2. .' % ] k f k l.m x =.-Xe.n.c.o. .o.i.b.a x.jXg f P j f a g d e.'.0.w.m m w.w.8.B.8.m e.M W n B.iXe.8.p x n A 8.e.q.p . z.z.",
"cXkXP.I.2.,X@XS.LX%Xh GXJXFX1.3XA.;.5XGXJXPXP.BXLXMXqX#X#X2X%XY.pXKXGX^.K.J =.v.*XL.fXI.^.3XI.#X#XFXJX%.*.K.*X*.x.;.U.P.G 3.NX2X",
"K.x.q.x.*.@X4.<.v.' *.SXD.#.*.%XK ] *.xXY.4X;.NXFX2X<XzXMX+X>XGX2X5X6X(.<XK.6XNX5XU.MXY.fX5X2X<XBXAXBXJXJXFX5X>XqX5XqX<XP.4XAXfX",
"m B S S n A l ' A p @.+.1.- l P H G F v.q X.K 6Xx.& $ *.1.% 1 b.I.P p.P q.c p F z.a b $ ..j b P l a f a.-Xs.j H l P U j j j U q.",
"m v B B x g z  .A g V.eX< + f z + # *.I.J x.& 6XJ 3 3 A.U.4 1 ' =XP i.d Y q.c o.N.s g p q.b P b  .I l p ~.!.N.q.c.q.b a P P P !.",
"K.;.o.i.v.A.4.XX6.Z #.XX, :X7X4 #.G U.2XK.4XU.FXJ q K zX0X5 5 3.3X=.X.h G U X.&.x.H  .J b.=.<.O.=.o.&.=.GXI.X.x.3Xx.X.h U X.h H ",
"U.[ J *.U.oXoXoXwXXX.Xy 8XXX7X$XFXHXNXGXxX4XxXFXFXFXFXUXLXzXHXHXNXY.U.*X6Xx.^.#XqX<X*X&XqXqXhXqXY.GXFXDXJX5X3.MXA.K.MXNX3X5XI.v."
};
